<?xml version="1.0" encoding="UTF-8"?>
<svg version="1.1" xmlns="http://www.w3.org/2000/svg" width="500" height="500">
<path d="M0 0 C1 1 1 1 1.0625 4.0625 C1.041875 5.031875 1.02125 6.00125 1 7 C1.33 6.67 1.66 6.34 2 6 C5 5.875 5 5.875 8 6 C8.495 6.495 8.495 6.495 9 7 C8.938125 6.05125 8.87625 5.1025 8.8125 4.125 C8.9053125 2.578125 8.9053125 2.578125 9 1 C12 -1 12 -1 14.5625 -0.875 C17 0 17 0 18.265625 1.734375 C19.26727263 4.8245645 18.49451232 6.19624329 17.1875 9.125 C16.80980469 9.99382812 16.43210938 10.86265625 16.04296875 11.7578125 C15.38101637 13.18088615 14.70190022 14.59619957 14 16 C13.34 16 12.68 16 12 16 C12 18.31 12 20.62 12 23 C12.804375 23.2475 13.60875 23.495 14.4375 23.75 C15.283125 24.1625 16.12875 24.575 17 25 C17.625 27.0625 17.625 27.0625 18 29 C18.99 29.33 19.98 29.66 21 30 C21.66 29.67 22.32 29.34 23 29 C23.66 29.33 24.32 29.66 25 30 C25 29.34 25 28.68 25 28 C23.02 27.34 21.04 26.68 19 26 C19.33 25.34 19.66 24.68 20 24 C23.0625 23.375 23.0625 23.375 26 23 C25.938125 22.05125 25.87625 21.1025 25.8125 20.125 C25.9053125 18.578125 25.9053125 18.578125 26 17 C29 15 29 15 31.5625 15.0625 C34 16 34 16 35.3125 18.4375 C36 21 36 21 36 23 C36.804375 23.144375 37.60875 23.28875 38.4375 23.4375 C41 24 41 24 42 25 C42.1875 27.9375 42.1875 27.9375 42 31 C40 33 40 33 37.375 33.125 C36.59125 33.08375 35.8075 33.0425 35 33 C35.20625 33.763125 35.4125 34.52625 35.625 35.3125 C36 38 36 38 34 41 C34.763125 40.79375 35.52625 40.5875 36.3125 40.375 C39 40 39 40 42 42 C42.3125 45 42.3125 45 42 48 C40 50 40 50 37.375 50.125 C36.59125 50.08375 35.8075 50.0425 35 50 C35.020625 50.969375 35.04125 51.93875 35.0625 52.9375 C35 56 35 56 34 57 C31.0625 57.1875 31.0625 57.1875 28 57 C26 55 26 55 25.75 53 C25.5025 52.34 25.255 51.68 25 51 C22.00384054 49.6954344 22.00384054 49.6954344 19 49 C19.33 48.01 19.66 47.02 20 46 C22.0625 45.3125 22.0625 45.3125 24 45 C21.54775306 45.10613836 21.54775306 45.10613836 19 46 C17.30812809 48.14491311 17.30812809 48.14491311 17 51 C17.9084968 54.31704343 17.9084968 54.31704343 20 57 C22.58414426 57.96906827 22.58414426 57.96906827 25 58 C25.495 61.465 25.495 61.465 26 65 C23 67 23 67 20.9375 67.3125 C20.298125 67.539375 19.65875 67.76625 19 68 C17.76709799 70.45704762 17.76709799 70.45704762 17 73 C16 74 16 74 13.5625 74.1875 C11 74 11 74 9 72 C8.375 69.375 8.375 69.375 8 67 C5.69 66.67 3.38 66.34 1 66 C1.04125 66.94875 1.0825 67.8975 1.125 68.875 C1 72 1 72 -1 74 C-3.5 74.3125 -3.5 74.3125 -6 74 C-7.74627478 71.38058783 -8.38722388 69.96175123 -9 67 C-9.969375 66.855625 -10.93875 66.71125 -11.9375 66.5625 C-15 66 -15 66 -16 65 C-15.71269945 62.66055264 -15.38063221 60.3260857 -15 58 C-12.69 57.34 -10.38 56.68 -8 56 C-7.67 53.69 -7.34 51.38 -7 49 C-9.64 49.66 -12.28 50.32 -15 51 C-15.12375 51.804375 -15.2475 52.60875 -15.375 53.4375 C-15.684375 54.7059375 -15.684375 54.7059375 -16 56 C-18.70879335 57.35439668 -21.00933268 57.06501451 -24 57 C-25.0625 54.625 -25.0625 54.625 -26 52 C-25.67 51.34 -25.34 50.68 -25 50 C-27.31 49.67 -29.62 49.34 -32 49 C-32.1875 45.625 -32.1875 45.625 -32 42 C-29 40 -29 40 -25 40 C-25.185625 39.21625 -25.37125 38.4325 -25.5625 37.625 C-26 35 -26 35 -25 33 C-26.175625 33.061875 -26.175625 33.061875 -27.375 33.125 C-30 33 -30 33 -32 31 C-32.3125 28 -32.3125 28 -32 25 C-29 23 -29 23 -25 23 C-25.33 22.01 -25.66 21.02 -26 20 C-25.3125 17.875 -25.3125 17.875 -24 16 C-22.125 15.0625 -22.125 15.0625 -20 15 C-17.75 16.125 -17.75 16.125 -16 18 C-15.75 20.6875 -15.75 20.6875 -16 23 C-13.69 23.33 -11.38 23.66 -9 24 C-9 24.99 -9 25.98 -9 27 C-4.2920022 23.7563651 -4.2920022 23.7563651 -2.125 18.6875 C-2.08375 17.800625 -2.0425 16.91375 -2 16 C-2.66 16 -3.32 16 -4 16 C-8.91330159 5.32991157 -8.91330159 5.32991157 -7 0 C-4.31633121 -1.3418344 -2.84719317 -0.73004953 0 0 Z M-5 3 C-4.67 3.66 -4.34 4.32 -4 5 C-3.67 4.34 -3.34 3.68 -3 3 C-3.66 3 -4.32 3 -5 3 Z M14 3 C15 5 15 5 15 5 Z M-1 8 C-1.33 9.32 -1.66 10.64 -2 12 C-1.01 12.495 -1.01 12.495 0 13 C0 11.35 0 9.7 0 8 C-0.33 8 -0.66 8 -1 8 Z M10 8 C10 9.65 10 11.3 10 13 C10.66 11.68 11.32 10.36 12 9 C11.34 8.67 10.68 8.34 10 8 Z M1 14 C1 15.98 1 17.96 1 20 C1.66 20 2.32 20 3 20 C3.33 18.68 3.66 17.36 4 16 C3.34 16 2.68 16 2 16 C1.67 15.34 1.34 14.68 1 14 Z M8 14 C6.70366379 15.06645115 6.70366379 15.06645115 6.9375 17.5625 C6.958125 18.366875 6.97875 19.17125 7 20 C7.66 19.67 8.32 19.34 9 19 C9 17.35 9 15.7 9 14 C8.67 14 8.34 14 8 14 Z M7 24 C7.33 24.99 7.66 25.98 8 27 C8.66 26.67 9.32 26.34 10 26 C9.67 25.34 9.34 24.68 9 24 C8.34 24 7.68 24 7 24 Z M-23 25 C-23 25.33 -23 25.66 -23 26 C-21.35 26 -19.7 26 -18 26 C-18 25.67 -18 25.34 -18 25 C-19.65 25 -21.3 25 -23 25 Z M-15 27 C-15 27.99 -15 28.98 -15 30 C-13.68 30 -12.36 30 -11 30 C-10.67 30.66 -10.34 31.32 -10 32 C-9.67 30.35 -9.34 28.7 -9 27 C-10.98 27 -12.96 27 -15 27 Z M12 27 C13 29 13 29 13 29 Z M3 28 C2.67 28.99 2.34 29.98 2 31 C2.66 31 3.32 31 4 31 C3.67 30.01 3.34 29.02 3 28 Z M7 29 C7 31.31 7 33.62 7 36 C7.66 36 8.32 36 9 36 C9 35.34 9 34.68 9 34 C9.66 33.67 10.32 33.34 11 33 C10.01 33 9.02 33 8 33 C7.67 31.68 7.34 30.36 7 29 Z M-23 30 C-23.33 30.66 -23.66 31.32 -24 32 C-22.35 32 -20.7 32 -19 32 C-19 31.34 -19 30.68 -19 30 C-20.32 30 -21.64 30 -23 30 Z M29 30 C28.67 30.66 28.34 31.32 28 32 C29.98 32 31.96 32 34 32 C33.67 31.34 33.34 30.68 33 30 C31.68 30 30.36 30 29 30 Z M-7 33 C-6.835 33.9075 -6.67 34.815 -6.5 35.75 C-6 39 -6 39 -6 43 C-5.01 44.485 -5.01 44.485 -4 46 C-3.67 41.05 -3.34 36.1 -3 31 C-4.46225016 30.90754997 -4.46225016 30.90754997 -7 33 Z M14 32 C13.25073929 35.66305234 12.7619986 38.42355152 14 42 C13.01 42 12.02 42 11 42 C11 41.34 11 40.68 11 40 C10.01 40 9.02 40 8 40 C7.67 39.34 7.34 38.68 7 38 C7.33 39.32 7.66 40.64 8 42 C8.66 41.67 9.32 41.34 10 41 C10 41.66 10 42.32 10 43 C11.32 43 12.64 43 14 43 C14.33 44.32 14.66 45.64 15 47 C16.80441192 42.32047386 16.80441192 42.32047386 16.125 37.5625 C15.568125 36.7890625 15.568125 36.7890625 15 36 C15.66 36 16.32 36 17 36 C16.67 34.68 16.34 33.36 16 32 C15.34 32 14.68 32 14 32 Z M-15 33 C-15.33 33.66 -15.66 34.32 -16 35 C-14.35 35 -12.7 35 -11 35 C-11 34.34 -11 33.68 -11 33 C-12.32 33 -13.64 33 -15 33 Z M2 32 C1.01 32.66 0.02 33.32 -1 34 C-0.34 34 0.32 34 1 34 C1 34.66 1 35.32 1 36 C1.66 36 2.32 36 3 36 C2.67 34.68 2.34 33.36 2 32 Z M21 33 C21 33.66 21 34.32 21 35 C22.65 35 24.3 35 26 35 C26 34.34 26 33.68 26 33 C24.35 33 22.7 33 21 33 Z M30 35 C30 35.99 30 36.98 30 38 C30.66 37.67 31.32 37.34 32 37 C32 36.34 32 35.68 32 35 C31.34 35 30.68 35 30 35 Z M20 36 C20.33 37.32 20.66 38.64 21 40 C22.32 40 23.64 40 25 40 C25 39.34 25 38.68 25 38 C23.68 38 22.36 38 21 38 C20.67 37.34 20.34 36.68 20 36 Z M-16 38 C-15.67 38.66 -15.34 39.32 -15 40 C-12.52733235 39.65555119 -12.52733235 39.65555119 -10 39 C-9.67 38.34 -9.34 37.68 -9 37 C-11.42797311 37 -13.62907005 37.50085685 -16 38 Z M2 38 C1.01 38.66 0.02 39.32 -1 40 C-0.67 40.99 -0.34 41.98 0 43 C0 42.34 0 41.68 0 41 C0.99 40.67 1.98 40.34 3 40 C2.67 39.34 2.34 38.68 2 38 Z M-29 44 C-28 46 -28 46 -28 46 Z M-16 44 C-16 44.66 -16 45.32 -16 46 C-14.02 46 -12.04 46 -10 46 C-10 45.34 -10 44.68 -10 44 C-11.98 44 -13.96 44 -16 44 Z M7 45 C7 46.32 7 47.64 7 49 C7.99 49 8.98 49 10 49 C9.34 47.68 8.68 46.36 8 45 C7.67 45 7.34 45 7 45 Z M-23 46 C-19 47 -19 47 -19 47 Z M27 46 C27.33 46.66 27.66 47.32 28 48 C28.99 47.67 29.98 47.34 31 47 C29.68 46.67 28.36 46.34 27 46 Z M12 51 C12 52.98 12 54.96 12 57 C12.99 57.33 13.98 57.66 15 58 C15 55.69 15 53.38 15 51 C14.01 51 13.02 51 12 51 Z M-4 52 C-4.33 54.31 -4.66 56.62 -5 59 C-4.34 58.67 -3.68 58.34 -3 58 C-2.34227572 54.97065509 -2.34227572 54.97065509 -2 52 C-2.66 52 -3.32 52 -4 52 Z M1 54 C1 55.65 1 57.3 1 59 C1.33 59 1.66 59 2 59 C2 57.35 2 55.7 2 54 C1.67 54 1.34 54 1 54 Z M7 54 C7.99 55.485 7.99 55.485 9 57 C9 56.01 9 55.02 9 54 C8.34 54 7.68 54 7 54 Z M-6 59 C-7.29633621 60.06645115 -7.29633621 60.06645115 -7.0625 62.5625 C-7.041875 63.366875 -7.02125 64.17125 -7 65 C-5.89163577 63.11683841 -5.89163577 63.11683841 -5 61 C-5.33 60.34 -5.66 59.68 -6 59 Z M10 60 C9.67 61.98 9.34 63.96 9 66 C9.66 66 10.32 66 11 66 C11 64.02 11 62.04 11 60 C10.67 60 10.34 60 10 60 Z M16 61 C17 65 17 65 17 65 Z M21 61 C21 64 21 64 21 64 Z M-12 62 C-11 64 -11 64 -11 64 Z M-5 68 C-4.34 68.66 -3.68 69.32 -3 70 C-2.67 69.34 -2.34 68.68 -2 68 C-2.99 68 -3.98 68 -5 68 Z M12 68 C12.33 68.66 12.66 69.32 13 70 C13.66 70 14.32 70 15 70 C15 69.34 15 68.68 15 68 C14.01 68 13.02 68 12 68 Z " fill="#CACBCB" transform="translate(104,212)"/>
<path d="M0 0 C2.4375 0.9375 2.4375 0.9375 3.75 3.375 C4.4375 5.9375 4.4375 5.9375 4.4375 7.9375 C5.241875 8.081875 6.04625 8.22625 6.875 8.375 C9.4375 8.9375 9.4375 8.9375 10.4375 9.9375 C10.625 12.875 10.625 12.875 10.4375 15.9375 C8.4375 17.9375 8.4375 17.9375 5.8125 18.0625 C5.02875 18.02125 4.245 17.98 3.4375 17.9375 C3.64375 18.700625 3.85 19.46375 4.0625 20.25 C4.4375 22.9375 4.4375 22.9375 2.4375 25.9375 C3.200625 25.73125 3.96375 25.525 4.75 25.3125 C7.4375 24.9375 7.4375 24.9375 10.4375 26.9375 C10.75 29.9375 10.75 29.9375 10.4375 32.9375 C8.4375 34.9375 8.4375 34.9375 5.8125 35.0625 C5.02875 35.02125 4.245 34.98 3.4375 34.9375 C3.458125 35.906875 3.47875 36.87625 3.5 37.875 C3.4375 40.9375 3.4375 40.9375 2.4375 41.9375 C-0.5 42.125 -0.5 42.125 -3.5625 41.9375 C-5.5625 39.9375 -5.5625 39.9375 -5.8125 37.9375 C-6.18375 36.9475 -6.18375 36.9475 -6.5625 35.9375 C-9.55865946 34.6329344 -9.55865946 34.6329344 -12.5625 33.9375 C-12.2325 32.9475 -11.9025 31.9575 -11.5625 30.9375 C-9.5 30.25 -9.5 30.25 -7.5625 29.9375 C-10.01474694 30.04363836 -10.01474694 30.04363836 -12.5625 30.9375 C-14.25437191 33.08241311 -14.25437191 33.08241311 -14.5625 35.9375 C-13.6540032 39.25454343 -13.6540032 39.25454343 -11.5625 41.9375 C-8.97835574 42.90656827 -8.97835574 42.90656827 -6.5625 42.9375 C-6.2325 45.2475 -5.9025 47.5575 -5.5625 49.9375 C-8.5625 51.9375 -8.5625 51.9375 -10.625 52.25 C-11.264375 52.476875 -11.90375 52.70375 -12.5625 52.9375 C-13.79540201 55.39454762 -13.79540201 55.39454762 -14.5625 57.9375 C-15.5625 58.9375 -15.5625 58.9375 -18 59.125 C-20.5625 58.9375 -20.5625 58.9375 -22.5625 56.9375 C-22.6875 53.8125 -22.6875 53.8125 -22.5625 50.9375 C-21.9025 50.9375 -21.2425 50.9375 -20.5625 50.9375 C-20.8925 48.9575 -21.2225 46.9775 -21.5625 44.9375 C-22.8825 44.6075 -24.2025 44.2775 -25.5625 43.9375 C-25.5625 42.2875 -25.5625 40.6375 -25.5625 38.9375 C-26.2225 38.6075 -26.8825 38.2775 -27.5625 37.9375 C-26.9025 37.2775 -26.2425 36.6175 -25.5625 35.9375 C-24.9025 36.2675 -24.2425 36.5975 -23.5625 36.9375 C-23.5625 37.9275 -23.5625 38.9175 -23.5625 39.9375 C-23.2325 38.9475 -22.9025 37.9575 -22.5625 36.9375 C-21.9025 36.9375 -21.2425 36.9375 -20.5625 36.9375 C-20.5625 35.9475 -20.5625 34.9575 -20.5625 33.9375 C-23.0375 34.4325 -23.0375 34.4325 -25.5625 34.9375 C-25.59136537 30.62501391 -25.60925255 26.31255238 -25.625 22 C-25.63337891 20.76830078 -25.64175781 19.53660156 -25.65039062 18.26757812 C-25.65361328 17.09775391 -25.65683594 15.92792969 -25.66015625 14.72265625 C-25.66539307 13.63863525 -25.67062988 12.55461426 -25.67602539 11.43774414 C-25.5625 8.9375 -25.5625 8.9375 -24.5625 7.9375 C-18.10096154 7.57852564 -18.10096154 7.57852564 -14.5625 9.9375 C-14.3975 10.618125 -14.2325 11.29875 -14.0625 12 C-13.8975 12.639375 -13.7325 13.27875 -13.5625 13.9375 C-12.5725 14.2675 -11.5825 14.5975 -10.5625 14.9375 C-9.9025 14.6075 -9.2425 14.2775 -8.5625 13.9375 C-7.9025 14.2675 -7.2425 14.5975 -6.5625 14.9375 C-6.5625 14.2775 -6.5625 13.6175 -6.5625 12.9375 C-8.5425 12.2775 -10.5225 11.6175 -12.5625 10.9375 C-12.2325 10.2775 -11.9025 9.6175 -11.5625 8.9375 C-8.5 8.3125 -8.5 8.3125 -5.5625 7.9375 C-5.624375 6.98875 -5.68625 6.04 -5.75 5.0625 C-5.6571875 3.515625 -5.6571875 3.515625 -5.5625 1.9375 C-2.5625 -0.0625 -2.5625 -0.0625 0 0 Z M-24.5625 8.9375 C-24.2325 9.9275 -23.9025 10.9175 -23.5625 11.9375 C-22.9025 11.6075 -22.2425 11.2775 -21.5625 10.9375 C-21.8925 10.2775 -22.2225 9.6175 -22.5625 8.9375 C-23.2225 8.9375 -23.8825 8.9375 -24.5625 8.9375 Z M-19.5625 11.9375 C-18.5625 13.9375 -18.5625 13.9375 -18.5625 13.9375 Z M-24.5625 13.9375 C-24.5625 16.2475 -24.5625 18.5575 -24.5625 20.9375 C-23.9025 20.9375 -23.2425 20.9375 -22.5625 20.9375 C-22.5625 20.2775 -22.5625 19.6175 -22.5625 18.9375 C-21.9025 18.6075 -21.2425 18.2775 -20.5625 17.9375 C-21.5525 17.9375 -22.5425 17.9375 -23.5625 17.9375 C-23.8925 16.6175 -24.2225 15.2975 -24.5625 13.9375 Z M-2.5625 14.9375 C-2.8925 15.5975 -3.2225 16.2575 -3.5625 16.9375 C-1.5825 16.9375 0.3975 16.9375 2.4375 16.9375 C2.1075 16.2775 1.7775 15.6175 1.4375 14.9375 C0.1175 14.9375 -1.2025 14.9375 -2.5625 14.9375 Z M-17.5625 16.9375 C-18.31176071 20.60055234 -18.8005014 23.36105152 -17.5625 26.9375 C-18.5525 26.9375 -19.5425 26.9375 -20.5625 26.9375 C-20.5625 26.2775 -20.5625 25.6175 -20.5625 24.9375 C-21.5525 24.9375 -22.5425 24.9375 -23.5625 24.9375 C-23.8925 24.2775 -24.2225 23.6175 -24.5625 22.9375 C-24.2325 24.2575 -23.9025 25.5775 -23.5625 26.9375 C-22.9025 26.6075 -22.2425 26.2775 -21.5625 25.9375 C-21.5625 26.5975 -21.5625 27.2575 -21.5625 27.9375 C-20.2425 27.9375 -18.9225 27.9375 -17.5625 27.9375 C-17.2325 29.2575 -16.9025 30.5775 -16.5625 31.9375 C-14.75808808 27.25797386 -14.75808808 27.25797386 -15.4375 22.5 C-15.994375 21.7265625 -15.994375 21.7265625 -16.5625 20.9375 C-15.9025 20.9375 -15.2425 20.9375 -14.5625 20.9375 C-14.8925 19.6175 -15.2225 18.2975 -15.5625 16.9375 C-16.2225 16.9375 -16.8825 16.9375 -17.5625 16.9375 Z M-10.5625 17.9375 C-10.5625 18.5975 -10.5625 19.2575 -10.5625 19.9375 C-8.9125 19.9375 -7.2625 19.9375 -5.5625 19.9375 C-5.5625 19.2775 -5.5625 18.6175 -5.5625 17.9375 C-7.2125 17.9375 -8.8625 17.9375 -10.5625 17.9375 Z M-1.5625 19.9375 C-1.5625 20.9275 -1.5625 21.9175 -1.5625 22.9375 C-0.9025 22.6075 -0.2425 22.2775 0.4375 21.9375 C0.4375 21.2775 0.4375 20.6175 0.4375 19.9375 C-0.2225 19.9375 -0.8825 19.9375 -1.5625 19.9375 Z M-11.5625 20.9375 C-11.2325 22.2575 -10.9025 23.5775 -10.5625 24.9375 C-9.2425 24.9375 -7.9225 24.9375 -6.5625 24.9375 C-6.5625 24.2775 -6.5625 23.6175 -6.5625 22.9375 C-7.8825 22.9375 -9.2025 22.9375 -10.5625 22.9375 C-10.8925 22.2775 -11.2225 21.6175 -11.5625 20.9375 Z M-24.5625 29.9375 C-24.5625 31.2575 -24.5625 32.5775 -24.5625 33.9375 C-23.5725 33.9375 -22.5825 33.9375 -21.5625 33.9375 C-22.2225 32.6175 -22.8825 31.2975 -23.5625 29.9375 C-23.8925 29.9375 -24.2225 29.9375 -24.5625 29.9375 Z M-4.5625 30.9375 C-4.2325 31.5975 -3.9025 32.2575 -3.5625 32.9375 C-2.5725 32.6075 -1.5825 32.2775 -0.5625 31.9375 C-1.8825 31.6075 -3.2025 31.2775 -4.5625 30.9375 Z M-19.5625 35.9375 C-19.5625 37.9175 -19.5625 39.8975 -19.5625 41.9375 C-18.5725 42.2675 -17.5825 42.5975 -16.5625 42.9375 C-16.5625 40.6275 -16.5625 38.3175 -16.5625 35.9375 C-17.5525 35.9375 -18.5425 35.9375 -19.5625 35.9375 Z M-15.5625 45.9375 C-14.5625 49.9375 -14.5625 49.9375 -14.5625 49.9375 Z M-10.5625 45.9375 C-10.5625 48.9375 -10.5625 48.9375 -10.5625 48.9375 Z M-19.5625 52.9375 C-19.2325 53.5975 -18.9025 54.2575 -18.5625 54.9375 C-17.9025 54.9375 -17.2425 54.9375 -16.5625 54.9375 C-16.5625 54.2775 -16.5625 53.6175 -16.5625 52.9375 C-17.5525 52.9375 -18.5425 52.9375 -19.5625 52.9375 Z " fill="#B7B7B7" transform="translate(135.5625,227.0625)"/>
<path d="M0 0 C3.96 0 7.92 0 12 0 C12 0.99 12 1.98 12 3 C11.34 3 10.68 3 10 3 C10.28875 3.90363281 10.5775 4.80726563 10.875 5.73828125 C11.24625 6.91777344 11.6175 8.09726563 12 9.3125 C12.37125 10.48425781 12.7425 11.65601563 13.125 12.86328125 C14 16 14 16 14 19 C14.66 19 15.32 19 16 19 C16.12117188 18.3709375 16.24234375 17.741875 16.3671875 17.09375 C17.42678016 11.68167674 18.61599898 6.33828966 20 1 C21.65 0.67 23.3 0.34 25 0 C28.12831428 6.4055959 29.52645284 13.05029175 31 20 C31.66 20 32.32 20 33 20 C33.103125 19.236875 33.20625 18.47375 33.3125 17.6875 C34.24133042 12.70559136 35.62116443 7.87362005 37 3 C36.01 3 35.02 3 34 3 C34 2.01 34 1.02 34 0 C37.63 0 41.26 0 45 0 C45 0.99 45 1.98 45 3 C44.54641113 3.44851318 44.09282227 3.89702637 43.62548828 4.35913086 C41.52520883 6.47928378 40.9371876 8.43130818 39.9921875 11.25390625 C39.47205078 12.78241211 39.47205078 12.78241211 38.94140625 14.34179688 C38.41353516 15.93604492 38.41353516 15.93604492 37.875 17.5625 C37.1650119 19.66828909 36.45411963 21.77377361 35.7421875 23.87890625 C35.4313623 24.8129126 35.12053711 25.74691895 34.80029297 26.70922852 C34 29 34 29 33 31 C31.35 31 29.7 31 28 31 C26.02 25.06 24.04 19.12 22 13 C20.72079692 16.19800771 19.73451287 18.74715729 19 22 C18.25212652 25.133946 17.29486243 28.04031444 16 31 C14.35 31 12.7 31 11 31 C10.05940388 28.37607166 9.12180987 25.75116829 8.1875 23.125 C7.77419434 21.96484375 7.77419434 21.96484375 7.35253906 20.78125 C5.59131945 15.79564372 3.98865152 10.80308783 2.640625 5.6875 C2.13680574 3.78612131 2.13680574 3.78612131 0 3 C0 2.01 0 1.02 0 0 Z " fill="#CDCDCD" transform="translate(205,234)"/>
<path d="M0 0 C3 1 3 1 4.2109375 3.37670898 C4.59507812 4.40610596 4.97921875 5.43550293 5.375 6.49609375 C5.80296875 7.61177734 6.2309375 8.72746094 6.671875 9.87695312 C7.32929688 11.63942383 7.32929688 11.63942383 8 13.4375 C8.86619115 15.75201371 9.74080495 18.06339794 10.625 20.37109375 C11.00914062 21.40161865 11.39328125 22.43214355 11.7890625 23.49389648 C12.8754649 26.28375271 12.8754649 26.28375271 16 28 C16 28.99 16 29.98 16 31 C11.71 31 7.42 31 3 31 C3 30.01 3 29.02 3 28 C3.66 28 4.32 28 5 28 C4.34 26.02 3.68 24.04 3 22 C-0.3 21.67 -3.6 21.34 -7 21 C-7.33 22.98 -7.66 24.96 -8 27 C-7.34 27.33 -6.68 27.66 -6 28 C-6 28.99 -6 29.98 -6 31 C-9.63 31 -13.26 31 -17 31 C-17 30.01 -17 29.02 -17 28 C-15.68 27.67 -14.36 27.34 -13 27 C-12.87020752 26.26861816 -12.74041504 25.53723633 -12.60668945 24.78369141 C-11.65860848 20.43358305 -9.89825093 16.47335067 -8.1875 12.375 C-7.84396484 11.51648438 -7.50042969 10.65796875 -7.14648438 9.7734375 C-6.80294922 8.9484375 -6.45941406 8.1234375 -6.10546875 7.2734375 C-5.79762451 6.52497559 -5.48978027 5.77651367 -5.17260742 5.00537109 C-3.76000003 2.58955657 -2.42771577 1.38207688 0 0 Z M-1 9 C-3.48818978 12.6698479 -3.48818978 12.6698479 -4 17 C-2.35 17 -0.7 17 1 17 C1 14.16032769 0.59732819 11.76264289 0 9 C-0.33 9 -0.66 9 -1 9 Z " fill="#D2D2D2" transform="translate(276,234)"/>
<path d="M0 0 C1.99609375 0.8984375 1.99609375 0.8984375 3.0859375 3.234375 C3.36566406 4.23726562 3.64539063 5.24015625 3.93359375 6.2734375 C5.5478002 11.65626937 7.58260763 16.57438916 10.04296875 21.62109375 C10.99609375 23.8984375 10.99609375 23.8984375 10.99609375 26.8984375 C12.31609375 27.2284375 13.63609375 27.5584375 14.99609375 27.8984375 C14.99609375 28.8884375 14.99609375 29.8784375 14.99609375 30.8984375 C10.37609375 30.8984375 5.75609375 30.8984375 0.99609375 30.8984375 C0.99609375 29.9084375 0.99609375 28.9184375 0.99609375 27.8984375 C1.65609375 27.5684375 2.31609375 27.2384375 2.99609375 26.8984375 C2.50109375 24.4234375 2.50109375 24.4234375 1.99609375 21.8984375 C-1.30390625 21.8984375 -4.60390625 21.8984375 -8.00390625 21.8984375 C-8.66390625 23.8784375 -9.32390625 25.8584375 -10.00390625 27.8984375 C-9.34390625 27.8984375 -8.68390625 27.8984375 -8.00390625 27.8984375 C-8.00390625 28.8884375 -8.00390625 29.8784375 -8.00390625 30.8984375 C-11.30390625 30.8984375 -14.60390625 30.8984375 -18.00390625 30.8984375 C-17.67390625 29.5784375 -17.34390625 28.2584375 -17.00390625 26.8984375 C-16.34390625 26.5684375 -15.68390625 26.2384375 -15.00390625 25.8984375 C-13.99078272 23.59588402 -13.07201929 21.31359467 -12.19140625 18.9609375 C-4.7563047 -0.24106028 -4.7563047 -0.24106028 0 0 Z M-4.00390625 8.8984375 C-4.66390625 11.2084375 -5.32390625 13.5184375 -6.00390625 15.8984375 C-4.8785652 17.25462249 -4.8785652 17.25462249 -1.94140625 16.9609375 C-0.97203125 16.9403125 -0.00265625 16.9196875 0.99609375 16.8984375 C-0.52946591 12.08720903 -0.52946591 12.08720903 -4.00390625 8.8984375 Z " fill="#D8D8D8" transform="translate(178.00390625,234.1015625)"/>
<path d="M0 0 C4.57294482 10.62479944 4.57294482 10.62479944 6.3046875 15.84375 C6.71976562 17.0915625 7.13484375 18.339375 7.5625 19.625 C7.93503906 20.79289062 8.30757813 21.96078125 8.69140625 23.1640625 C9.74273061 26.10482377 9.74273061 26.10482377 12.15234375 27.3984375 C12.76207031 27.59695313 13.37179687 27.79546875 14 28 C14 28.99 14 29.98 14 31 C9.71 31 5.42 31 1 31 C1 28 1 28 2 25 C1.67 24.01 1.34 23.02 1 22 C-2.3 22 -5.6 22 -9 22 C-9.33 23.65 -9.66 25.3 -10 27 C-9.34 27.33 -8.68 27.66 -8 28 C-8 28.99 -8 29.98 -8 31 C-11.63 31 -15.26 31 -19 31 C-18.67 29.68 -18.34 28.36 -18 27 C-17.34 27 -16.68 27 -16 27 C-15.62875 25.515 -15.62875 25.515 -15.25 24 C-14.24201103 20.46494009 -12.77735155 17.36907563 -11.07421875 14.12109375 C-9.56514911 11.14136715 -8.30029448 8.06723769 -7.02734375 4.98046875 C-5.19155048 1.44150606 -4.08697177 0 0 0 Z M-4 8 C-4.99 10.97 -5.98 13.94 -7 17 C-5.02 17 -3.04 17 -1 17 C-1.66 14.03 -2.32 11.06 -3 8 C-3.33 8 -3.66 8 -4 8 Z " fill="#C4C4C4" transform="translate(398,234)"/>
<path d="M0 0 C4.55555556 1.55555556 4.55555556 1.55555556 6 3 C6.04063832 4.66617115 6.042721 6.33388095 6 8 C8.31 8.33 10.62 8.66 13 9 C13 9.99 13 10.98 13 12 C13.556875 11.690625 14.11375 11.38125 14.6875 11.0625 C17.13651534 9.93727674 19.35562855 9.47463077 22 9 C22.99 8.67 23.98 8.34 25 8 C24.67 8.99 24.34 9.98 24 11 C23.34 11 22.68 11 22 11 C21.67 11.99 21.34 12.98 21 14 C20.34 14 19.68 14 19 14 C18.67 14.99 18.34 15.98 18 17 C17.34 17.33 16.68 17.66 16 18 C16.2475 19.36125 16.2475 19.36125 16.5 20.75 C17.47058824 27.05882353 17.47058824 27.05882353 16 30 C15.01 28.68 14.02 27.36 13 26 C12.67 26.99 12.34 27.98 12 29 C11.01 28.67 10.02 28.34 9 28 C9.33 27.34 9.66 26.68 10 26 C8.35 26 6.7 26 5 26 C5.33 25.01 5.66 24.02 6 23 C7.65 23.33 9.3 23.66 11 24 C10.67 23.67 10.34 23.34 10 23 C10 22.34 10 21.68 10 21 C8.35 21 6.7 21 5 21 C4.67 20.34 4.34 19.68 4 19 C0.62537285 19.54723683 -1.08235 20.0549 -4 22 C-3.67 20.68 -3.34 19.36 -3 18 C-3.78375 18.04125 -4.5675 18.0825 -5.375 18.125 C-8 18 -8 18 -10 16 C-10.3125 13 -10.3125 13 -10 10 C-7 8 -7 8 -3 8 C-3.33 7.01 -3.66 6.02 -4 5 C-2.99500868 2.37156116 -2.55192629 1.27596315 0 0 Z M-1 10 C-1 10.33 -1 10.66 -1 11 C0.65 11 2.3 11 4 11 C4 10.67 4 10.34 4 10 C2.35 10 0.7 10 -1 10 Z M7 12 C7 12.99 7 13.98 7 15 C8.32 15 9.64 15 11 15 C11.33 15.66 11.66 16.32 12 17 C12.33 15.35 12.66 13.7 13 12 C11.02 12 9.04 12 7 12 Z M-1 15 C-1.33 15.66 -1.66 16.32 -2 17 C-0.35 17 1.3 17 3 17 C3 16.34 3 15.68 3 15 C1.68 15 0.36 15 -1 15 Z M7 18 C6.67 18.66 6.34 19.32 6 20 C7.65 20 9.3 20 11 20 C11 19.34 11 18.68 11 18 C9.68 18 8.36 18 7 18 Z " fill="#B3B3B3" transform="translate(82,227)"/>
<path d="M0 0 C1 1 1 1 1.0625 4.0625 C1.041875 5.031875 1.02125 6.00125 1 7 C1.33 6.67 1.66 6.34 2 6 C5 5.875 5 5.875 8 6 C8.33 6.33 8.66 6.66 9 7 C8.938125 6.05125 8.87625 5.1025 8.8125 4.125 C8.9053125 2.578125 8.9053125 2.578125 9 1 C12 -1 12 -1 14.5625 -0.875 C17 0 17 0 18.265625 1.734375 C19.26727263 4.8245645 18.49451232 6.19624329 17.1875 9.125 C16.80980469 9.99382812 16.43210937 10.86265625 16.04296875 11.7578125 C15.38101637 13.18088615 14.70190022 14.59619957 14 16 C13.34 16 12.68 16 12 16 C12 17.98 12 19.96 12 22 C11.401875 21.814375 10.80375 21.62875 10.1875 21.4375 C7.83591238 20.77906313 7.83591238 20.77906313 5 22 C3.7315625 21.938125 3.7315625 21.938125 2.4375 21.875 C1.633125 21.91625 0.82875 21.9575 0 22 C-0.66 22.99 -1.32 23.98 -2 25 C-2.99 24.67 -3.98 24.34 -5 24 C-4.34 23.34 -3.68 22.68 -3 22 C-2.60235737 20.01178687 -2.26224651 18.01055661 -2 16 C-2.66 16 -3.32 16 -4 16 C-8.91330159 5.32991157 -8.91330159 5.32991157 -7 0 C-4.31633121 -1.3418344 -2.84719317 -0.73004953 0 0 Z M-5 3 C-4.67 3.66 -4.34 4.32 -4 5 C-3.67 4.34 -3.34 3.68 -3 3 C-3.66 3 -4.32 3 -5 3 Z M14 3 C15 5 15 5 15 5 Z M-1 8 C-1.33 9.32 -1.66 10.64 -2 12 C-1.01 12.495 -1.01 12.495 0 13 C0 11.35 0 9.7 0 8 C-0.33 8 -0.66 8 -1 8 Z M10 8 C10 9.65 10 11.3 10 13 C10.66 11.68 11.32 10.36 12 9 C11.34 8.67 10.68 8.34 10 8 Z M1 14 C1 15.98 1 17.96 1 20 C1.66 20 2.32 20 3 20 C3.33 18.68 3.66 17.36 4 16 C3.34 16 2.68 16 2 16 C1.67 15.34 1.34 14.68 1 14 Z M8 14 C6.70366379 15.06645115 6.70366379 15.06645115 6.9375 17.5625 C6.958125 18.366875 6.97875 19.17125 7 20 C7.66 19.67 8.32 19.34 9 19 C9 17.35 9 15.7 9 14 C8.67 14 8.34 14 8 14 Z " fill="#AFAFAF" transform="translate(104,212)"/>
<path d="M0 0 C2 2 2 2 2.125 5.125 C2.08375 6.07375 2.0425 7.0225 2 8 C0.68 8 -0.64 8 -2 8 C-2.33 6.68 -2.66 5.36 -3 4 C-5.31 4 -7.62 4 -10 4 C-10.33 5.65 -10.66 7.3 -11 9 C-10.34 9 -9.68 9 -9 9 C-9 9.66 -9 10.32 -9 11 C-8.29875 11.0825 -7.5975 11.165 -6.875 11.25 C-3.0768933 12.24081044 -0.89270198 13.30911444 2 16 C2.76599986 19.13311221 2.68763183 21.8565402 2 25 C-0.19831364 28.03215675 -1.44963194 28.81654398 -5 30 C-9.95337583 30.23967948 -13.48141403 30.25929298 -18 28 C-18.33 25.36 -18.66 22.72 -19 20 C-17.68 20 -16.36 20 -15 20 C-14.401875 20.845625 -13.80375 21.69125 -13.1875 22.5625 C-12.1046875 23.7690625 -12.1046875 23.7690625 -11 25 C-7.29945591 24.9363921 -7.29945591 24.9363921 -4 24 C-4.13149472 22.08365669 -4.13149472 22.08365669 -5 20 C-7.20183977 18.38735678 -7.20183977 18.38735678 -9.875 17.0625 C-13.93793134 14.93627208 -16.07229403 13.22662558 -18 9 C-17.625 5.375 -17.625 5.375 -16 2 C-10.80698707 -1.39135538 -5.97354885 -1.61808961 0 0 Z " fill="#BFBFBF" transform="translate(325,235)"/>
<path d="M0 0 C1.00023193 0.00523682 2.00046387 0.01047363 3.03100586 0.01586914 C4.1105957 0.0190918 5.19018555 0.02231445 6.30249023 0.02563477 C8.00695312 0.03820312 8.00695312 0.03820312 9.74584961 0.05102539 C11.45611328 0.05779297 11.45611328 0.05779297 13.20092773 0.06469727 C16.02845312 0.07652792 18.85587601 0.09301129 21.68334961 0.11352539 C22.44621197 3.52097727 22.8000224 5.76350701 21.68334961 9.11352539 C20.69334961 9.11352539 19.70334961 9.11352539 18.68334961 9.11352539 C18.35334961 7.79352539 18.02334961 6.47352539 17.68334961 5.11352539 C15.20834961 4.61852539 15.20834961 4.61852539 12.68334961 4.11352539 C12.68334961 11.70352539 12.68334961 19.29352539 12.68334961 27.11352539 C13.67334961 27.44352539 14.66334961 27.77352539 15.68334961 28.11352539 C15.68334961 29.10352539 15.68334961 30.09352539 15.68334961 31.11352539 C11.39334961 31.11352539 7.10334961 31.11352539 2.68334961 31.11352539 C2.35334961 30.12352539 2.02334961 29.13352539 1.68334961 28.11352539 C3.00334961 27.78352539 4.32334961 27.45352539 5.68334961 27.11352539 C5.68334961 19.52352539 5.68334961 11.93352539 5.68334961 4.11352539 C4.03334961 4.77352539 2.38334961 5.43352539 0.68334961 6.11352539 C0.35334961 7.10352539 0.02334961 8.09352539 -0.31665039 9.11352539 C-1.30665039 9.11352539 -2.29665039 9.11352539 -3.31665039 9.11352539 C-3.41430664 2.96118164 -3.41430664 2.96118164 -3.31665039 1.11352539 C-2.31665039 0.11352539 -2.31665039 0.11352539 0 0 Z " fill="#EFEFEF" transform="translate(346.316650390625,233.886474609375)"/>
<path d="M0 0 C2.125 0.9375 2.125 0.9375 4 2 C4 2.33 4 2.66 4 3 C2.35 3.33 0.7 3.66 -1 4 C-1.33 12.58 -1.66 21.16 -2 30 C-0.02 29.34 1.96 28.68 4 28 C4.33 28.66 4.66 29.32 5 30 C4.34 30 3.68 30 3 30 C3 30.66 3 31.32 3 32 C2.34 32 1.68 32 1 32 C0.67 32.66 0.34 33.32 0 34 C0 33.34 0 32.68 0 32 C-1.485 32.495 -1.485 32.495 -3 33 C-2.67 33.33 -2.34 33.66 -2 34 C-1.95936168 35.66617115 -1.957279 37.33388095 -2 39 C-0.68 39.33 0.64 39.66 2 40 C2.125 42.375 2.125 42.375 2 45 C1.34 45.66 0.68 46.32 0 47 C-3.625 46.625 -3.625 46.625 -7 46 C-7 44.02 -7 42.04 -7 40 C-5.515 39.505 -5.515 39.505 -4 39 C-4.62810173 36.02982306 -4.62810173 36.02982306 -6 33 C-8.50995496 31.56076801 -8.50995496 31.56076801 -11 31 C-11 30.34 -11 29.68 -11 29 C-9.7934375 28.690625 -9.7934375 28.690625 -8.5625 28.375 C-5.78824725 27.26078342 -5.78824725 27.26078342 -5.1875 24.625 C-4.91796283 19.41394798 -4.92403164 14.21649424 -5 9 C-5.66 9 -6.32 9 -7 9 C-7 9.66 -7 10.32 -7 11 C-8.32 11 -9.64 11 -11 11 C-11 10.34 -11 9.68 -11 9 C-9.34997172 7.64613064 -7.6825613 6.31321858 -6 5 C-5.67 4.34 -5.34 3.68 -5 3 C-5.5775 3.515625 -6.155 4.03125 -6.75 4.5625 C-9 6 -9 6 -11.25 5.6875 C-11.8275 5.460625 -12.405 5.23375 -13 5 C-12.01 5 -11.02 5 -10 5 C-9.34 3.68 -8.68 2.36 -8 1 C-7.05125 1.020625 -6.1025 1.04125 -5.125 1.0625 C-2.09333717 1.22551826 -2.09333717 1.22551826 0 0 Z " fill="#F2F3F4" transform="translate(112,232)"/>
<path d="M0 0 C4.29 0 8.58 0 13 0 C13 0.99 13 1.98 13 3 C12.01 3 11.02 3 10 3 C10 10.92 10 18.84 10 27 C11.32 27.66 12.64 28.32 14 29 C13.67 29.66 13.34 30.32 13 31 C8.71 31 4.42 31 0 31 C0 30.01 0 29.02 0 28 C1.32 27.67 2.64 27.34 4 27 C3.67 19.41 3.34 11.82 3 4 C2.01 3.67 1.02 3.34 0 3 C0 2.01 0 1.02 0 0 Z " fill="#D0D0D0" transform="translate(425,234)"/>
<path d="M0 0 C3.96 0 7.92 0 12 0 C12 0.99 12 1.98 12 3 C11.34 3 10.68 3 10 3 C10.2165625 3.72445312 10.433125 4.44890625 10.65625 5.1953125 C13.42179262 14.79789104 13.42179262 14.79789104 13 20 C13.66 20.33 14.32 20.66 15 21 C14.34 21 13.68 21 13 21 C13.33 21.66 13.66 22.32 14 23 C14.99 23.33 15.98 23.66 17 24 C16.67 26.31 16.34 28.62 16 31 C14.35 31 12.7 31 11 31 C10.05940388 28.37607166 9.12180987 25.75116829 8.1875 23.125 C7.77419434 21.96484375 7.77419434 21.96484375 7.35253906 20.78125 C5.59131945 15.79564372 3.98865152 10.80308783 2.640625 5.6875 C2.13680574 3.78612131 2.13680574 3.78612131 0 3 C0 2.01 0 1.02 0 0 Z " fill="#C8C8C8" transform="translate(205,234)"/>
<path d="M0 0 C2.625 0.375 2.625 0.375 5 1 C5 1.66 5 2.32 5 3 C6.65 3 8.3 3 10 3 C10 3.66 10 4.32 10 5 C8.35 5 6.7 5 5 5 C5 5.99 5 6.98 5 8 C6.65 8 8.3 8 10 8 C9.67 8.99 9.34 9.98 9 11 C7.0625 11.5625 7.0625 11.5625 5 12 C4.34 12.66 3.68 13.32 3 14 C0.375 13.625 0.375 13.625 -2 13 C-2.33 14.32 -2.66 15.64 -3 17 C-5.31 16.67 -7.62 16.34 -10 16 C-10.1875 12.625 -10.1875 12.625 -10 9 C-7 7 -7 7 -3 7 C-2.814375 5.824375 -2.814375 5.824375 -2.625 4.625 C-2 2 -2 2 0 0 Z M-7 11 C-6 13 -6 13 -6 13 Z " fill="#B6B7B7" transform="translate(82,245)"/>
<path d="M0 0 C3.625 0.1875 3.625 0.1875 6.625 2.1875 C6.98662029 3.51344105 7.32228039 4.84688457 7.625 6.1875 C8.285 6.5175 8.945 6.8475 9.625 7.1875 C8.965 8.8375 8.305 10.4875 7.625 12.1875 C6.965 11.8575 6.305 11.5275 5.625 11.1875 C5.625 10.5275 5.625 9.8675 5.625 9.1875 C4.965 9.1875 4.305 9.1875 3.625 9.1875 C3.625 12.4875 3.625 15.7875 3.625 19.1875 C2.635 19.1875 1.645 19.1875 0.625 19.1875 C0.625 18.5275 0.625 17.8675 0.625 17.1875 C-0.365 17.5175 -1.355 17.8475 -2.375 18.1875 C-1.715 18.5175 -1.055 18.8475 -0.375 19.1875 C-1.365 21.4975 -2.355 23.8075 -3.375 26.1875 C-2.385 26.5175 -1.395 26.8475 -0.375 27.1875 C-1.695 27.1875 -3.015 27.1875 -4.375 27.1875 C-4.40386537 22.87501391 -4.42175255 18.56255238 -4.4375 14.25 C-4.44587891 13.01830078 -4.45425781 11.78660156 -4.46289062 10.51757812 C-4.46611328 9.34775391 -4.46933594 8.17792969 -4.47265625 6.97265625 C-4.47789307 5.88863525 -4.48312988 4.80461426 -4.48852539 3.68774414 C-4.31405222 -0.15479283 -3.96156701 0.22008706 0 0 Z M-3.375 1.1875 C-3.045 2.1775 -2.715 3.1675 -2.375 4.1875 C-1.715 3.8575 -1.055 3.5275 -0.375 3.1875 C-0.705 2.5275 -1.035 1.8675 -1.375 1.1875 C-2.035 1.1875 -2.695 1.1875 -3.375 1.1875 Z M1.625 4.1875 C2.625 6.1875 2.625 6.1875 2.625 6.1875 Z M-3.375 6.1875 C-3.375 8.4975 -3.375 10.8075 -3.375 13.1875 C-2.715 13.1875 -2.055 13.1875 -1.375 13.1875 C-1.375 12.5275 -1.375 11.8675 -1.375 11.1875 C-0.715 10.8575 -0.055 10.5275 0.625 10.1875 C-0.365 10.1875 -1.355 10.1875 -2.375 10.1875 C-2.705 8.8675 -3.035 7.5475 -3.375 6.1875 Z " fill="#B1B2B2" transform="translate(114.375,234.8125)"/>
<path d="M0 0 C0.5625 1.9375 0.5625 1.9375 1 4 C0.67 4.33 0.34 4.66 0 5 C0.99 5.66 1.98 6.32 3 7 C2.525625 7.763125 2.05125 8.52625 1.5625 9.3125 C-0.10106097 11.96410548 -0.10106097 11.96410548 -1 15 C0.98 14.67 2.96 14.34 5 14 C5.33 14.66 5.66 15.32 6 16 C3.03 16.33 0.06 16.66 -3 17 C0.3 17.33 3.6 17.66 7 18 C6.67 18.66 6.34 19.32 6 20 C2.7 19.67 -0.6 19.34 -4 19 C-4.33 20.98 -4.66 22.96 -5 25 C-4.34 25.33 -3.68 25.66 -3 26 C-3 26.99 -3 27.98 -3 29 C-6.63 29 -10.26 29 -14 29 C-14 28.01 -14 27.02 -14 26 C-12.68 25.67 -11.36 25.34 -10 25 C-9.80857422 23.90510254 -9.80857422 23.90510254 -9.61328125 22.78808594 C-9.03106594 20.14123129 -8.24274481 17.88054028 -7.1875 15.390625 C-6.65769531 14.13572266 -6.65769531 14.13572266 -6.1171875 12.85546875 C-5.56417969 11.56576172 -5.56417969 11.56576172 -5 10.25 C-4.44699219 8.93708984 -4.44699219 8.93708984 -3.8828125 7.59765625 C-1.13923518 1.13923518 -1.13923518 1.13923518 0 0 Z " fill="#B3B3B3" transform="translate(273,236)"/>
<path d="M0 0 C0.66 0 1.32 0 2 0 C1.67 0.99 1.34 1.98 1 3 C0.34 3 -0.32 3 -1 3 C-1.33 3.99 -1.66 4.98 -2 6 C-2.66 6 -3.32 6 -4 6 C-4.33 6.99 -4.66 7.98 -5 9 C-5.99 9.495 -5.99 9.495 -7 10 C-6.7525 11.36125 -6.7525 11.36125 -6.5 12.75 C-5.52941176 19.05882353 -5.52941176 19.05882353 -7 22 C-7.99 20.68 -8.98 19.36 -10 18 C-10.33 18.99 -10.66 19.98 -11 21 C-11.99 20.67 -12.98 20.34 -14 20 C-13.67 19.34 -13.34 18.68 -13 18 C-14.65 18 -16.3 18 -18 18 C-17.67 17.01 -17.34 16.02 -17 15 C-15.35 15.33 -13.7 15.66 -12 16 C-12.33 15.67 -12.66 15.34 -13 15 C-13 14.34 -13 13.68 -13 13 C-14.65 13 -16.3 13 -18 13 C-18.33 12.34 -18.66 11.68 -19 11 C-22.37462715 11.54723683 -24.08235 12.0549 -27 14 C-26.34 12.35 -25.68 10.7 -25 9 C-21.535 8.505 -21.535 8.505 -18 8 C-17.01 9.485 -17.01 9.485 -16 11 C-13.94074861 11.72382467 -13.94074861 11.72382467 -12 12 C-12.33 10.35 -12.66 8.7 -13 7 C-12.34 7.33 -11.68 7.66 -11 8 C-10.9175 7.38125 -10.835 6.7625 -10.75 6.125 C-10 4 -10 4 -8.25 2.8125 C-5.85282672 1.94685409 -3.5006471 1.4730954 -1 1 C-0.67 0.67 -0.34 0.34 0 0 Z " fill="#C5C7C6" transform="translate(105,235)"/>
<path d="M0 0 C0.66 0 1.32 0 2 0 C2.62589928 8.13669065 2.62589928 8.13669065 0.1875 11.5 C-3.96170497 14.34516912 -8.12269971 14.40802318 -13 14 C-16 13 -16 13 -18 12 C-18.33 9.36 -18.66 6.72 -19 4 C-17.68 4 -16.36 4 -15 4 C-14.401875 4.845625 -13.80375 5.69125 -13.1875 6.5625 C-12.1046875 7.7690625 -12.1046875 7.7690625 -11 9 C-7.29945591 8.9363921 -7.29945591 8.9363921 -4 8 C-4.50603992 5.83125748 -4.99983813 4.00032373 -6 2 C-4.7934375 1.7834375 -4.7934375 1.7834375 -3.5625 1.5625 C-1.07896294 1.25864751 -1.07896294 1.25864751 0 0 Z " fill="#BCBCBC" transform="translate(325,251)"/>
<path d="M0 0 C1.3515243 4.8992756 0.75429081 9.00282342 0 14 C2.97 14.495 2.97 14.495 6 15 C6 15.33 6 15.66 6 16 C3.03 16 0.06 16 -3 16 C-3 16.33 -3 16.66 -3 17 C0.3 17.33 3.6 17.66 7 18 C7 18.33 7 18.66 7 19 C2.05 19.495 2.05 19.495 -3 20 C-3.66 21.98 -4.32 23.96 -5 26 C-4.34 26 -3.68 26 -3 26 C-3 26.99 -3 27.98 -3 29 C-6.3 29 -9.6 29 -13 29 C-12.67 27.68 -12.34 26.36 -12 25 C-11.34 24.67 -10.68 24.34 -10 24 C-8.96274947 21.67655881 -8.0227293 19.37672833 -7.125 17 C-6.59509245 15.63359321 -6.06384379 14.26770575 -5.53125 12.90234375 C-5.27214844 12.2357373 -5.01304687 11.56913086 -4.74609375 10.88232422 C-3.28617214 7.19907958 -1.64388731 3.60390679 0 0 Z " fill="#B0B0B0" transform="translate(173,236)"/>
<path d="M0 0 C2.4375 0.875 2.4375 0.875 3.703125 2.609375 C4.70477263 5.6995645 3.93201232 7.07124329 2.625 10 C2.24730469 10.86882812 1.86960937 11.73765625 1.48046875 12.6328125 C0.81851637 14.05588615 0.13940022 15.47119957 -0.5625 16.875 C-1.2225 16.875 -1.8825 16.875 -2.5625 16.875 C-2.5625 18.855 -2.5625 20.835 -2.5625 22.875 C-3.8825 22.215 -5.2025 21.555 -6.5625 20.875 C-6.48182999 17.74892559 -6.3689771 14.62483249 -6.25 11.5 C-6.22744141 10.61054688 -6.20488281 9.72109375 -6.18164062 8.8046875 C-6.14619141 7.95390625 -6.11074219 7.103125 -6.07421875 6.2265625 C-6.04803467 5.44104004 -6.02185059 4.65551758 -5.99487305 3.84619141 C-5.24926206 0.44694627 -3.24129733 -0.15811206 0 0 Z M-0.5625 3.875 C0.4375 5.875 0.4375 5.875 0.4375 5.875 Z M-4.5625 8.875 C-4.5625 10.525 -4.5625 12.175 -4.5625 13.875 C-3.9025 12.555 -3.2425 11.235 -2.5625 9.875 C-3.2225 9.545 -3.8825 9.215 -4.5625 8.875 Z " fill="#AAAAAA" transform="translate(118.5625,211.125)"/>
<path d="M0 0 C0.33 0.66 0.66 1.32 1 2 C3.64 1.67 6.28 1.34 9 1 C9.66 2.32 10.32 3.64 11 5 C8.03 5.66 5.06 6.32 2 7 C1.87625 7.804375 1.7525 8.60875 1.625 9.4375 C1.41875 10.283125 1.2125 11.12875 1 12 C-1.70879335 13.35439668 -4.00933268 13.06501451 -7 13 C-8.125 10.75 -8.125 10.75 -9 8 C-8.1875 5.8125 -8.1875 5.8125 -7 4 C-6.67 3.34 -6.34 2.68 -6 2 C-4.35 2.33 -2.7 2.66 -1 3 C-0.67 2.01 -0.34 1.02 0 0 Z " fill="#949595" transform="translate(87,256)"/>
<path d="M0 0 C0.33 0.66 0.66 1.32 1 2 C1.66 2 2.32 2 3 2 C2.67 3.32 2.34 4.64 2 6 C1.67 5.34 1.34 4.68 1 4 C0.67 4.99 0.34 5.98 0 7 C0.99 7 1.98 7 3 7 C3.21192221 12.19209404 2.5912689 16.126739 1 21 C-1.31 20.34 -3.62 19.68 -6 19 C-5.85941524 16.54126232 -5.71277001 14.08314825 -5.5625 11.625 C-5.52318359 10.92632812 -5.48386719 10.22765625 -5.44335938 9.5078125 C-5.11328125 4.2265625 -5.11328125 4.2265625 -4 2 C-2.68 2 -1.36 2 0 2 C0 1.34 0 0.68 0 0 Z M1 9 C0.01 9.66 -0.98 10.32 -2 11 C-1.67 11.99 -1.34 12.98 -1 14 C-1 13.34 -1 12.68 -1 12 C-0.01 11.67 0.98 11.34 2 11 C1.67 10.34 1.34 9.68 1 9 Z " fill="#E0E6E2" transform="translate(105,241)"/>
<path d="M0 0 C3.63 0 7.26 0 11 0 C11 3 11 3 9.61401367 4.39575195 C9.08138916 4.92515381 8.54876465 5.45455566 8 6 C6.96374223 8.19878621 6.96374223 8.19878621 6.17578125 10.66796875 C5.86962891 11.56064453 5.56347656 12.45332031 5.24804688 13.37304688 C4.93931641 14.30181641 4.63058594 15.23058594 4.3125 16.1875 C3.99216797 17.12787109 3.67183594 18.06824219 3.34179688 19.03710938 C2.55329908 21.35552825 1.77305452 23.67639543 1 26 C-1.91905081 17.24284756 -0.02400082 11.63073195 3 3 C2.01 3 1.02 3 0 3 C0 2.01 0 1.02 0 0 Z " fill="#BABABA" transform="translate(239,234)"/>
<path d="M0 0 C2.125 0.9375 2.125 0.9375 4 2 C4 2.33 4 2.66 4 3 C2.35 3.33 0.7 3.66 -1 4 C-1.33 11.59 -1.66 19.18 -2 27 C-2.99 27 -3.98 27 -5 27 C-5 21.06 -5 15.12 -5 9 C-5.66 9 -6.32 9 -7 9 C-7 9.66 -7 10.32 -7 11 C-8.32 11 -9.64 11 -11 11 C-11 10.34 -11 9.68 -11 9 C-9.34997172 7.64613064 -7.6825613 6.31321858 -6 5 C-5.67 4.34 -5.34 3.68 -5 3 C-5.5775 3.515625 -6.155 4.03125 -6.75 4.5625 C-9 6 -9 6 -11.25 5.6875 C-11.8275 5.460625 -12.405 5.23375 -13 5 C-12.01 5 -11.02 5 -10 5 C-9.34 3.68 -8.68 2.36 -8 1 C-7.05125 1.020625 -6.1025 1.04125 -5.125 1.0625 C-2.09333717 1.22551826 -2.09333717 1.22551826 0 0 Z " fill="#F4F6F5" transform="translate(112,232)"/>
<path d="M0 0 C2.5625 0.1875 2.5625 0.1875 4.5625 2.1875 C4.6875 5.3125 4.6875 5.3125 4.5625 8.1875 C3.44875 8.579375 2.335 8.97125 1.1875 9.375 C-1.75710666 10.61232967 -2.29632545 10.92356497 -3.875 13.875 C-4.060625 14.638125 -4.24625 15.40125 -4.4375 16.1875 C-5.0975 15.8575 -5.7575 15.5275 -6.4375 15.1875 C-6.78400743 9.52787856 -5.91805609 6.14861218 -3.4375 1.1875 C-2.4375 0.1875 -2.4375 0.1875 0 0 Z M-1.4375 4.1875 C-0.7775 4.8475 -0.1175 5.5075 0.5625 6.1875 C0.5625 5.5275 0.5625 4.8675 0.5625 4.1875 C-0.0975 4.1875 -0.7575 4.1875 -1.4375 4.1875 Z " fill="#BFBEBF" transform="translate(125.4375,217.8125)"/>
<path d="M0 0 C2.5 0.25 2.5 0.25 4.5 2.25 C6.57828238 7.09932556 6.67855281 11.07196838 6.5 16.25 C5.84 16.25 5.18 16.25 4.5 16.25 C4.5 14.6 4.5 12.95 4.5 11.25 C3.38625 10.96125 2.2725 10.6725 1.125 10.375 C-2.5 9.25 -2.5 9.25 -4.5 7.25 C-4.75 4.75 -4.75 4.75 -4.5 2.25 C-2.5 0.25 -2.5 0.25 0 0 Z " fill="#9E9E9E" transform="translate(92.5,217.75)"/>
<path d="M0 0 C2.25 0.75 2.25 0.75 3.25 1.75 C3.4375 4.6875 3.4375 4.6875 3.25 7.75 C2.59 8.41 1.93 9.07 1.25 9.75 C-1.5014776 9.53834788 -3.17365111 9.37353535 -5.0859375 7.3046875 C-7.22531775 5.30592379 -9.12825838 4.8286568 -11.9375 4.0625 C-12.83855469 3.81113281 -13.73960937 3.55976563 -14.66796875 3.30078125 C-15.35503906 3.11902344 -16.04210937 2.93726563 -16.75 2.75 C-16.75 2.09 -16.75 1.43 -16.75 0.75 C-12.17780749 0.4959893 -12.17780749 0.4959893 -9.75 1.9375 C-9.09 2.205625 -8.43 2.47375 -7.75 2.75 C-2.67465753 -0.24315068 -2.67465753 -0.24315068 0 0 Z " fill="#E3E3E3" transform="translate(142.75,252.25)"/>
<path d="M0 0 C0.33 0 0.66 0 1 0 C1.33 7.59 1.66 15.18 2 23 C5.18654782 21.38600027 5.18654782 21.38600027 5.43237305 18.84521484 C5.45855713 17.97590332 5.48474121 17.1065918 5.51171875 16.2109375 C5.54716797 15.26992187 5.58261719 14.32890625 5.61914062 13.359375 C5.64169922 12.37453125 5.66425781 11.3896875 5.6875 10.375 C5.72166016 9.38242188 5.75582031 8.38984375 5.79101562 7.3671875 C5.87365657 4.91157094 5.94275127 2.45631859 6 0 C6.33 0 6.66 0 7 0 C7 7.26 7 14.52 7 22 C7.99 22.33 8.98 22.66 10 23 C10 23.99 10 24.98 10 26 C5.71 26 1.42 26 -3 26 C-3.33 25.01 -3.66 24.02 -4 23 C-2.68 22.67 -1.36 22.34 0 22 C0 14.74 0 7.48 0 0 Z " fill="#848484" transform="translate(352,239)"/>
<path d="M0 0 C1.75 2.25 1.75 2.25 1.75 5.25 C3.07 5.58 4.39 5.91 5.75 6.25 C5.75 7.24 5.75 8.23 5.75 9.25 C1.13 9.25 -3.49 9.25 -8.25 9.25 C-8.25 8.26 -8.25 7.27 -8.25 6.25 C-7.59 5.92 -6.93 5.59 -6.25 5.25 C-6.25 3.27 -6.25 1.29 -6.25 -0.75 C-3.2663262 -2.02871734 -2.64201386 -2.05489967 0 0 Z " fill="#C0C0C0" transform="translate(187.25,255.75)"/>
<path d="M0 0 C0.99 0.33 1.98 0.66 3 1 C3 2.32 3 3.64 3 5 C3.66 5.33 4.32 5.66 5 6 C4.34 6 3.68 6 3 6 C3.33 6.66 3.66 7.32 4 8 C4.99 8.33 5.98 8.66 7 9 C6.67 11.31 6.34 13.62 6 16 C4.35 16 2.7 16 1 16 C-2.44419134 6.58997722 -2.44419134 6.58997722 -2 2 C-1.34 2 -0.68 2 0 2 C0 1.34 0 0.68 0 0 Z " fill="#D2D2D2" transform="translate(215,249)"/>
<path d="M0 0 C4.77567869 -0.09746283 9.30643695 0.06128739 14 1 C15.4783226 3.95664519 15.06032783 6.74229737 15 10 C12.125 10.125 12.125 10.125 9 10 C7 8 7 8 6.75 6 C6.5025 5.34 6.255 4.68 6 4 C3.00384054 2.6954344 3.00384054 2.6954344 0 2 C0 1.34 0 0.68 0 0 Z " fill="#BBBBBB" transform="translate(123,259)"/>
<path d="M0 0 C1.98 0 3.96 0 6 0 C7.90477819 3.80955639 7.17565535 7.40716321 6 11.375 C5.67 12.24125 5.34 13.1075 5 14 C4.01 14 3.02 14 2 14 C2 12.68 2 11.36 2 10 C1.34 10 0.68 10 0 10 C-1.36952673 7.26094655 -1.12621361 5.02912668 -1 2 C-0.67 1.34 -0.34 0.68 0 0 Z " fill="#BCBCBC" transform="translate(106,218)"/>
<path d="M0 0 C1.25 2.4375 1.25 2.4375 2 5 C1.67 5.99 1.34 6.98 1 8 C-1 8 -3 8 -5 8 C-5 7.34 -5 6.68 -5 6 C-5.69867188 6.03480469 -6.39734375 6.06960937 -7.1171875 6.10546875 C-8.48230469 6.14607422 -8.48230469 6.14607422 -9.875 6.1875 C-11.23238281 6.23970703 -11.23238281 6.23970703 -12.6171875 6.29296875 C-13.79667969 6.14794922 -13.79667969 6.14794922 -15 6 C-15.66 5.01 -16.32 4.02 -17 3 C-16.34 2.67 -15.68 2.34 -15 2 C-15 2.66 -15 3.32 -15 4 C-12.03 4 -9.06 4 -6 4 C-6.66 2.35 -7.32 0.7 -8 -1 C-3.375 -2.25 -3.375 -2.25 0 0 Z " fill="#DFDFDF" transform="translate(185,248)"/>
<path d="M0 0 C4.75 1.875 4.75 1.875 7 3 C6.67 3.99 6.34 4.98 6 6 C3.03 5.01 0.06 4.02 -3 3 C-3 3.66 -3 4.32 -3 5 C-2.29875 5.12375 -1.5975 5.2475 -0.875 5.375 C4.60928874 6.56723668 8.2471222 7.66975639 12 12 C11.34 12 10.68 12 10 12 C10 13.98 10 15.96 10 18 C9.67 18 9.34 18 9 18 C8.34 15.69 7.68 13.38 7 11 C5.700625 10.7834375 5.700625 10.7834375 4.375 10.5625 C2.125 10.1875 -0.125 9.8125 -2.375 9.4375 C-3.674375 9.2209375 -3.674375 9.2209375 -5 9 C-3.68 8.34 -2.36 7.68 -1 7 C-2.32 6.67 -3.64 6.34 -5 6 C-5 4.35 -5 2.7 -5 1 C-2.525 1.495 -2.525 1.495 0 2 C0 1.34 0 0.68 0 0 Z M2 8 C2.33 8.66 2.66 9.32 3 10 C3.99 9.67 4.98 9.34 6 9 C4.68 8.67 3.36 8.34 2 8 Z " fill="#969696" transform="translate(129,250)"/>
<path d="M0 0 C2.875 -0.1875 2.875 -0.1875 6 0 C8 3 8 3 7.9375 5.5625 C7 8 7 8 4.4375 9.3125 C3.2309375 9.6528125 3.2309375 9.6528125 2 10 C2 9.34 2 8.68 2 8 C-0.64 7.34 -3.28 6.68 -6 6 C-6 5.34 -6 4.68 -6 4 C-4.35 4 -2.7 4 -1 4 C-0.67 2.68 -0.34 1.36 0 0 Z M2 3 C2 3.99 2 4.98 2 6 C2.66 5.67 3.32 5.34 4 5 C4 4.34 4 3.68 4 3 C3.34 3 2.68 3 2 3 Z " fill="#F0F2F1" transform="translate(132,244)"/>
<path d="M0 0 C2 2 2 2 2.5 5.0625 C2.665 6.031875 2.83 7.00125 3 8 C3.66 8.33 4.32 8.66 5 9 C5 9.99 5 10.98 5 12 C1.37 12 -2.26 12 -6 12 C-5.67 10.68 -5.34 9.36 -5 8 C-4.34 8 -3.68 8 -3 8 C-2.690625 6.865625 -2.38125 5.73125 -2.0625 4.5625 C-1 1 -1 1 0 0 Z " fill="#C0C0C0" transform="translate(385,253)"/>
<path d="M0 0 C1.00023193 0.00523682 2.00046387 0.01047363 3.03100586 0.01586914 C4.1105957 0.0190918 5.19018555 0.02231445 6.30249023 0.02563477 C8.00695312 0.03820312 8.00695312 0.03820312 9.74584961 0.05102539 C11.45611328 0.05779297 11.45611328 0.05779297 13.20092773 0.06469727 C16.02845312 0.07652792 18.85587601 0.09301129 21.68334961 0.11352539 C21.68334961 0.44352539 21.68334961 0.77352539 21.68334961 1.11352539 C13.26834961 1.60852539 13.26834961 1.60852539 4.68334961 2.11352539 C5.01334961 2.77352539 5.34334961 3.43352539 5.68334961 4.11352539 C4.87897461 4.38165039 4.07459961 4.64977539 3.24584961 4.92602539 C2.40022461 5.31790039 1.55459961 5.70977539 0.68334961 6.11352539 C0.35334961 7.10352539 0.02334961 8.09352539 -0.31665039 9.11352539 C-1.30665039 9.11352539 -2.29665039 9.11352539 -3.31665039 9.11352539 C-3.41430664 2.96118164 -3.41430664 2.96118164 -3.31665039 1.11352539 C-2.31665039 0.11352539 -2.31665039 0.11352539 0 0 Z " fill="#B5B5B5" transform="translate(346.316650390625,233.886474609375)"/>
<path d="M0 0 C-0.33 0.33 -0.66 0.66 -1 1 C1.39509338 3.89932357 3.31245243 4.50168276 7 5 C6.071875 5.3403125 6.071875 5.3403125 5.125 5.6875 C2.38589791 7.37929835 1.94975528 8.99244161 1 12 C-0.65 12 -2.3 12 -4 12 C-4.33 12.66 -4.66 13.32 -5 14 C-5.6875 11.1875 -5.6875 11.1875 -6 8 C-4.5625 6.125 -4.5625 6.125 -3 5 C-2.34 5.33 -1.68 5.66 -1 6 C-1 5.34 -1 4.68 -1 4 C-2.98 3.34 -4.96 2.68 -7 2 C-6 0 -6 0 -4.0625 -0.6875 C-2 -1 -2 -1 0 0 Z M-5 9 C-5 9.66 -5 10.32 -5 11 C-3.35 11 -1.7 11 0 11 C0 10.34 0 9.68 0 9 C-1.65 9 -3.3 9 -5 9 Z " fill="#8B8C8C" transform="translate(130,236)"/>
<path d="M0 0 C2.625 0.9375 2.625 0.9375 5 2 C5.04254356 3.99954746 5.04080783 6.00041636 5 8 C4 9 4 9 0.9375 9.0625 C-0.031875 9.041875 -1.00125 9.02125 -2 9 C-3.125 7.25 -3.125 7.25 -4 5 C-3.07451225 2.30066074 -2.57626463 1.28813232 0 0 Z " fill="#C5C5C5" transform="translate(82,227)"/>
<path d="M0 0 C3.625 -0.1875 3.625 -0.1875 7 0 C7.04241723 2.33294775 7.04092937 4.66702567 7 7 C6 8 6 8 2.9375 8.0625 C1.968125 8.041875 0.99875 8.02125 0 8 C-1.125 5.6875 -1.125 5.6875 -2 3 C-1.34 2.01 -0.68 1.02 0 0 Z " fill="#C2C0C1" transform="translate(80,261)"/>
<path d="M0 0 C0.66 0.33 1.32 0.66 2 1 C1.34 4.3 0.68 7.6 0 11 C-1.65 11 -3.3 11 -5 11 C-6.35439668 8.29120665 -6.06501451 5.99066732 -6 3 C-4.02 2.67 -2.04 2.34 0 2 C0 1.34 0 0.68 0 0 Z " fill="#D2D2D2" transform="translate(238,254)"/>
<path d="M0 0 C3.32134831 6.64269663 3.32134831 6.64269663 2.44140625 10.359375 C2.15136719 11.14828125 1.86132812 11.9371875 1.5625 12.75 C1.27503906 13.54921875 0.98757812 14.3484375 0.69140625 15.171875 C0.46324219 15.77515625 0.23507813 16.3784375 0 17 C-0.33 16.34 -0.66 15.68 -1 15 C-3.02463255 14.34786708 -3.02463255 14.34786708 -5 14 C-5 11.69 -5 9.38 -5 7 C-4.67 7.99 -4.34 8.98 -4 10 C-3.34 10 -2.68 10 -2 10 C-1.34 6.7 -0.68 3.4 0 0 Z " fill="#BCBCBC" transform="translate(223,243)"/>
<path d="M0 0 C1.45922693 0.11409593 2.91740598 0.24165544 4.375 0.375 C5.59316406 0.47941406 5.59316406 0.47941406 6.8359375 0.5859375 C9 1 9 1 11 3 C11.125 6.125 11.125 6.125 11 9 C9.68 9 8.36 9 7 9 C6.67 7.68 6.34 6.36 6 5 C3.69 4.67 1.38 4.34 -1 4 C0.32 3.67 1.64 3.34 3 3 C3 2.34 3 1.68 3 1 C2.01 0.67 1.02 0.34 0 0 Z " fill="#B7B7B7" transform="translate(316,234)"/>
<path d="M0 0 C3.99996286 1.33332095 4.83782337 3.4957827 7 7 C6.67 7.66 6.34 8.32 6 9 C8.31 9.33 10.62 9.66 13 10 C13 10.33 13 10.66 13 11 C8.07872966 11.16682272 4.49656104 11.24828052 0 9 C-0.87890625 2.84765625 -0.87890625 2.84765625 -1 1 C-0.67 0.67 -0.34 0.34 0 0 Z " fill="#A4A4A4" transform="translate(307,254)"/>
<path d="M0 0 C0.66 0.33 1.32 0.66 2 1 C2 1.99 2 2.98 2 4 C3.32 4.33 4.64 4.66 6 5 C6 5.99 6 6.98 6 8 C1.71 8 -2.58 8 -7 8 C-7 7.01 -7 6.02 -7 5 C-5.5459375 4.5978125 -5.5459375 4.5978125 -4.0625 4.1875 C-3.051875 3.795625 -2.04125 3.40375 -1 3 C-0.67 2.01 -0.34 1.02 0 0 Z " fill="#FAFAFA" transform="translate(432,257)"/>
<path d="M0 0 C0.99 0.33 1.98 0.66 3 1 C3.33 1.99 3.66 2.98 4 4 C4.66 3.01 5.32 2.02 6 1 C6.20086443 4.71599191 6.1519437 5.77208445 4 9 C3.34 9 2.68 9 2 9 C2 10.98 2 12.96 2 15 C0.68 14.34 -0.64 13.68 -2 13 C-1.85966889 11.02043559 -1.7125877 9.04134859 -1.5625 7.0625 C-1.48128906 5.96035156 -1.40007812 4.85820312 -1.31640625 3.72265625 C-1 1 -1 1 0 0 Z M0 1 C0 2.65 0 4.3 0 6 C0.66 4.68 1.32 3.36 2 2 C1.34 1.67 0.68 1.34 0 1 Z " fill="#8C8D8D" transform="translate(114,219)"/>
<path d="M0 0 C1.3515243 4.8992756 0.75429081 9.00282342 0 14 C2.97 14.495 2.97 14.495 6 15 C6 15.33 6 15.66 6 16 C2 16 -2 16 -6 16 C-4.56176509 10.36691325 -2.45855991 5.26322777 0 0 Z " fill="#828282" transform="translate(173,236)"/>
<path d="M0 0 C6.625 -0.25 6.625 -0.25 10 2 C10.1875 5.125 10.1875 5.125 10 8 C9.01 8 8.02 8 7 8 C7 6.68 7 5.36 7 4 C6.34 4 5.68 4 5 4 C5 5.32 5 6.64 5 8 C4.34 8 3.68 8 3 8 C3 7.34 3 6.68 3 6 C2.34 6 1.68 6 1 6 C1 3 1 3 2 2 C1.34 1.34 0.68 0.68 0 0 Z " fill="#B3B5B4" transform="translate(111,235)"/>
<path d="M0 0 C0.125 2.875 0.125 2.875 0 6 C-2 8 -2 8 -4.5625 8.1875 C-7 8 -7 8 -8 7 C-8.04063832 5.33382885 -8.042721 3.66611905 -8 2 C-5.09399739 0.74335022 -3.20395416 0 0 0 Z M-6 2 C-5.34 2.66 -4.68 3.32 -4 4 C-3.67 3.34 -3.34 2.68 -3 2 C-3.99 2 -4.98 2 -6 2 Z " fill="#DEDEDE" transform="translate(105,278)"/>
<path d="M0 0 C1.65 0.33 3.3 0.66 5 1 C5.33 3.31 5.66 5.62 6 8 C3 10 3 10 0.8125 9.625 C0.214375 9.41875 -0.38375 9.2125 -1 9 C-1 2 -1 2 0 0 Z M1 4 C1 7 1 7 1 7 Z " fill="#ADADAD" transform="translate(124,269)"/>
<path d="M0 0 C6.52307692 0.49230769 6.52307692 0.49230769 8.9375 3.0625 C9.288125 3.701875 9.63875 4.34125 10 5 C9.67 5.66 9.34 6.32 9 7 C6.78970467 7 5.01332407 6.55182557 2.875 6 C2.15054687 5.814375 1.42609375 5.62875 0.6796875 5.4375 C-0.15175781 5.2209375 -0.15175781 5.2209375 -1 5 C-0.67 3.35 -0.34 1.7 0 0 Z " fill="#E6E6E6" transform="translate(316,247)"/>
<path d="M0 0 C2.625 0.375 2.625 0.375 5 1 C5 1.66 5 2.32 5 3 C6.65 3 8.3 3 10 3 C10 3.66 10 4.32 10 5 C9.05125 4.835 8.1025 4.67 7.125 4.5 C4.19831099 3.9473365 4.19831099 3.9473365 2 4 C1.67 5.65 1.34 7.3 1 9 C-0.32 8.34 -1.64 7.68 -3 7 C-2.25 2.25 -2.25 2.25 0 0 Z " fill="#F1F3F2" transform="translate(82,245)"/>
<path d="M0 0 C0.66 0 1.32 0 2 0 C1.34 1.32 0.68 2.64 0 4 C0.66 4.33 1.32 4.66 2 5 C0.25 10.75 0.25 10.75 -2 13 C-2.69748583 14.31747324 -3.36959957 15.64914193 -4 17 C-4 16.34 -4 15.68 -4 15 C-4.66 14.67 -5.32 14.34 -6 14 C-5.18836991 12.04130597 -4.37566899 10.08305564 -3.5625 8.125 C-3.11003906 7.03445312 -2.65757812 5.94390625 -2.19140625 4.8203125 C-1.50456537 3.19441376 -0.78934113 1.57868226 0 0 Z " fill="#C4C4C4" transform="translate(393,235)"/>
<path d="M0 0 C0.99 0.33 1.98 0.66 3 1 C4.1875 4.5625 4.1875 4.5625 5 8 C1.52176885 9.15941038 -0.45895578 8.70820884 -4 8 C-3.40138258 5.64828869 -2.73075648 3.3140622 -2 1 C-1.34 0.67 -0.68 0.34 0 0 Z " fill="#E6E6E6" transform="translate(276,234)"/>
<path d="M0 0 C0.66 0 1.32 0 2 0 C2.21192221 5.19209404 1.5912689 9.126739 0 14 C-2.31 13.34 -4.62 12.68 -7 12 C-6.67 8.7 -6.34 5.4 -6 2 C-5.67 2 -5.34 2 -5 2 C-5 4.64 -5 7.28 -5 10 C-4.01 10 -3.02 10 -2 10 C-2 9.01 -2 8.02 -2 7 C-2 6.34 -2 5.68 -2 5 C-1.34 4.67 -0.68 4.34 0 4 C0 2.68 0 1.36 0 0 Z " fill="#7F8183" transform="translate(106,248)"/>
<path d="M0 0 C0.66 0.33 1.32 0.66 2 1 C2 5.29 2 9.58 2 14 C0.68 14 -0.64 14 -2 14 C-1.979375 13.2575 -1.95875 12.515 -1.9375 11.75 C-1.99328688 9.29537721 -2.3069904 7.33890739 -3 5 C-2.34 4.67 -1.68 4.34 -1 4 C-0.34786708 1.97536745 -0.34786708 1.97536745 0 0 Z " fill="#CDCECD" transform="translate(122,243)"/>
<path d="M0 0 C0.625 2.8125 0.625 2.8125 1 6 C0.01 7.485 0.01 7.485 -1 9 C-0.34 9.33 0.32 9.66 1 10 C-4.875 9.125 -4.875 9.125 -6 8 C-5.71269945 5.66055264 -5.38063221 3.3260857 -5 1 C-2 0 -2 0 0 0 Z M-2 5 C-1 7 -1 7 -1 7 Z " fill="#B0B0B0" transform="translate(94,269)"/>
<path d="M0 0 C2.375 0.3125 2.375 0.3125 5 1 C7 4 7 4 7 8 C6.01 8.495 6.01 8.495 5 9 C4.34444881 11.52733235 4.34444881 11.52733235 4 14 C3.01 14.33 2.02 14.66 1 15 C0.78721942 10.53160785 1.40861915 7.17737474 3 3 C2.34 3 1.68 3 1 3 C0.67 2.01 0.34 1.02 0 0 Z M4 3 C4 4.65 4 6.3 4 8 C4.33 8 4.66 8 5 8 C5 6.35 5 4.7 5 3 C4.67 3 4.34 3 4 3 Z " fill="#949596" transform="translate(101,263)"/>
<path d="M0 0 C0.33 0 0.66 0 1 0 C1.02887236 3.81248426 1.04675492 7.6249407 1.0625 11.4375 C1.07087891 12.52611328 1.07925781 13.61472656 1.08789062 14.73632812 C1.09111328 15.77080078 1.09433594 16.80527344 1.09765625 17.87109375 C1.10289307 18.82943115 1.10812988 19.78776855 1.11352539 20.77514648 C1 23 1 23 0 24 C3.3 24.33 6.6 24.66 10 25 C10 25.33 10 25.66 10 26 C5.71 26 1.42 26 -3 26 C-3.33 25.01 -3.66 24.02 -4 23 C-2.68 22.67 -1.36 22.34 0 22 C0 14.74 0 7.48 0 0 Z " fill="#505050" transform="translate(352,239)"/>
<path d="M0 0 C0 0.66 0 1.32 0 2 C-1.32 2 -2.64 2 -4 2 C-4.33 2.99 -4.66 3.98 -5 5 C-5.66 5 -6.32 5 -7 5 C-7 5.99 -7 6.98 -7 8 C-8.32 8 -9.64 8 -11 8 C-10.6875 5.125 -10.6875 5.125 -10 2 C-6.3558226 -0.4294516 -4.28758728 -0.16179575 0 0 Z " fill="#D3D3D3" transform="translate(319,235)"/>
<path d="M0 0 C0.99 0 1.98 0 3 0 C3.185625 1.7015625 3.185625 1.7015625 3.375 3.4375 C3.684375 5.2009375 3.684375 5.2009375 4 7 C4.66 7.33 5.32 7.66 6 8 C5.67 8.99 5.34 9.98 5 11 C5.33 11.99 5.66 12.98 6 14 C4.68 13.67 3.36 13.34 2 13 C2 11.35 2 9.7 2 8 C1.34 7.67 0.68 7.34 0 7 C0 4.69 0 2.38 0 0 Z " fill="#D8D8D8" transform="translate(119,264)"/>
<path d="M0 0 C0.66 0.66 1.32 1.32 2 2 C2.66 1.67 3.32 1.34 4 1 C2.9318153 6.11365014 1.76892524 11.07227969 0 16 C-1.96537085 10.10388746 -2.4092176 5.81046597 0 0 Z " fill="#A3A3A3" transform="translate(240,244)"/>
<path d="M0 0 C0.33 0.99 0.66 1.98 1 3 C2.32 3 3.64 3 5 3 C5 3.99 5 4.98 5 6 C1.37 6 -2.26 6 -6 6 C-6 5.01 -6 4.02 -6 3 C-4.02 2.01 -2.04 1.02 0 0 Z " fill="#B3B3B3" transform="translate(265,259)"/>
<path d="M0 0 C2.49118953 3.7367843 2.2065226 5.74451819 2.125 10.1875 C2.10695313 11.45980469 2.08890625 12.73210937 2.0703125 14.04296875 C2.03550781 15.50669922 2.03550781 15.50669922 2 17 C2.66 17.33 3.32 17.66 4 18 C3.01 20.31 2.02 22.62 1 25 C1.99 25.33 2.98 25.66 4 26 C2.68 26 1.36 26 0 26 C0 17.42 0 8.84 0 0 Z " fill="#8C8D8D" transform="translate(110,236)"/>
<path d="M0 0 C0.53625 0.515625 1.0725 1.03125 1.625 1.5625 C4.00496499 3.32605545 4.00496499 3.32605545 7.25 2.6875 C8.1575 2.460625 9.065 2.23375 10 2 C8.125 6.875 8.125 6.875 7 8 C4.5625 8.1875 4.5625 8.1875 2 8 C0 6 0 6 -0.125 2.875 C-0.08375 1.92625 -0.0425 0.9775 0 0 Z " fill="#B5B5B5" transform="translate(113,278)"/>
<path d="M0 0 C0.99 0 1.98 0 3 0 C3.33 2.97 3.66 5.94 4 9 C2.68 9.33 1.36 9.66 0 10 C0 8.68 0 7.36 0 6 C-0.99 5.67 -1.98 5.34 -3 5 C-1.6875 2.5 -1.6875 2.5 0 0 Z " fill="#EAEAEA" transform="translate(395,234)"/>
<path d="M0 0 C0.33 0 0.66 0 1 0 C1 1.65 1 3.3 1 5 C3.31 5.33 5.62 5.66 8 6 C8 6.99 8 7.98 8 9 C2.78020872 9.1799928 -1.07262981 8.97094808 -6 7 C-6 6.67 -6 6.34 -6 6 C-4.35 5.67 -2.7 5.34 -1 5 C-0.67 3.35 -0.34 1.7 0 0 Z " fill="#888888" transform="translate(87,230)"/>
<path d="M0 0 C4.75 1.875 4.75 1.875 7 3 C6.67 3.99 6.34 4.98 6 6 C3.03 5.01 0.06 4.02 -3 3 C-3 3.66 -3 4.32 -3 5 C-1.35 5.33 0.3 5.66 2 6 C-0.6666419 7.33332095 -2.16680303 6.67102033 -5 6 C-5 4.35 -5 2.7 -5 1 C-2.525 1.495 -2.525 1.495 0 2 C0 1.34 0 0.68 0 0 Z " fill="#4D5150" transform="translate(129,250)"/>
<path d="M0 0 C0.66 0.33 1.32 0.66 2 1 C1.835 1.763125 1.67 2.52625 1.5 3.3125 C0.90854604 6.03596236 0.90854604 6.03596236 1 9 C0.01 7.68 -0.98 6.36 -2 5 C-2.33 5.99 -2.66 6.98 -3 8 C-3.99 7.67 -4.98 7.34 -6 7 C-5.67 6.34 -5.34 5.68 -5 5 C-6.65 5 -8.3 5 -10 5 C-9.67 4.01 -9.34 3.02 -9 2 C-8.2575 2.185625 -7.515 2.37125 -6.75 2.5625 C-4.05009037 2.99203108 -2.55368923 2.85122974 0 2 C0 1.34 0 0.68 0 0 Z " fill="#737474" transform="translate(97,248)"/>
<path d="M0 0 C2.35953094 2.35953094 2.49141413 3.77895617 3 7 C2.01 7.33 1.02 7.66 0 8 C0 7.34 0 6.68 0 6 C-1.65 6 -3.3 6 -5 6 C-5.33 5.34 -5.66 4.68 -6 4 C-9.37462715 4.54723683 -11.08235 5.0549 -14 7 C-13.34 5.35 -12.68 3.7 -12 2 C-8.535 1.505 -8.535 1.505 -5 1 C-4.34 1.99 -3.68 2.98 -3 4 C-0.94074861 4.72382467 -0.94074861 4.72382467 1 5 C0.67 3.35 0.34 1.7 0 0 Z " fill="#808281" transform="translate(92,242)"/>
<path d="M0 0 C2.0625 0.4375 2.0625 0.4375 4 1 C3.34 2.65 2.68 4.3 2 6 C2.99 6 3.98 6 5 6 C5 7.98 5 9.96 5 12 C3 11 3 11 2 8 C1.01 7.67 0.02 7.34 -1 7 C-1.04254356 5.00045254 -1.04080783 2.99958364 -1 1 C-0.67 0.67 -0.34 0.34 0 0 Z " fill="#D1D1D1" transform="translate(114,212)"/>
<path d="M0 0 C0.5625 1.9375 0.5625 1.9375 1 4 C0.67 4.33 0.34 4.66 0 5 C0.99 5.66 1.98 6.32 3 7 C1.75 9.4375 1.75 9.4375 0 12 C-2.109375 12.66015625 -2.109375 12.66015625 -4 13 C-3.71517632 11.58194169 -3.42181856 10.16559621 -3.125 8.75 C-2.96257812 7.96109375 -2.80015625 7.1721875 -2.6328125 6.359375 C-2.00849925 4.03168856 -1.15161458 2.10968048 0 0 Z " fill="#B0B0B0" transform="translate(273,236)"/>
<path d="M0 0 C0.33 1.32 0.66 2.64 1 4 C1.99 4 2.98 4 4 4 C4.33 3.34 4.66 2.68 5 2 C5.66 2.33 6.32 2.66 7 3 C6.34 4.65 5.68 6.3 5 8 C4.34 7.67 3.68 7.34 3 7 C3 6.34 3 5.68 3 5 C2.01 5.495 2.01 5.495 1 6 C-0.99960012 6.039992 -3.00047242 6.04346799 -5 6 C-5 4.68 -5 3.36 -5 2 C-4.34 2 -3.68 2 -3 2 C-3 2.66 -3 3.32 -3 4 C-2.34 4 -1.68 4 -1 4 C-0.67 2.68 -0.34 1.36 0 0 Z " fill="#6F7270" transform="translate(117,239)"/>
<path d="M0 0 C0.66 0.33 1.32 0.66 2 1 C1.67 1.99 1.34 2.98 1 4 C2.65 3.67 4.3 3.34 6 3 C6 3.99 6 4.98 6 6 C3.69 6 1.38 6 -1 6 C-1 6.66 -1 7.32 -1 8 C-2.98 8 -4.96 8 -7 8 C-6.071875 7.6596875 -6.071875 7.6596875 -5.125 7.3125 C-2.37585439 5.6144983 -2.00115914 4.00347742 -1 1 C-0.67 0.67 -0.34 0.34 0 0 Z " fill="#EBEAEB" transform="translate(132,230)"/>
<path d="M0 0 C0.33 0.66 0.66 1.32 1 2 C1.66 2 2.32 2 3 2 C2.67 3.32 2.34 4.64 2 6 C1.67 5.34 1.34 4.68 1 4 C0.731875 4.639375 0.46375 5.27875 0.1875 5.9375 C-1 8 -1 8 -4 9 C-5.125 4.25 -5.125 4.25 -4 2 C-2.68 2 -1.36 2 0 2 C0 1.34 0 0.68 0 0 Z " fill="#929493" transform="translate(105,241)"/>
<path d="M0 0 C2.57455698 2.57455698 2.41265954 4.47595722 3 8 C3.66 8.66 4.32 9.32 5 10 C3.0625 9.625 3.0625 9.625 1 9 C0.67 8.34 0.34 7.68 0 7 C-0.99 7.99 -1.98 8.98 -3 10 C-3.99 9.67 -4.98 9.34 -6 9 C-5.01 8.67 -4.02 8.34 -3 8 C-2.25740651 5.68970915 -1.588562 3.354248 -1 1 C-0.67 0.67 -0.34 0.34 0 0 Z " fill="#999999" transform="translate(385,253)"/>
<path d="M0 0 C0.33 0.66 0.66 1.32 1 2 C2.32 2 3.64 2 5 2 C5 2.99 5 3.98 5 5 C1.7 5 -1.6 5 -5 5 C-5 4.34 -5 3.68 -5 3 C-2.5 1.375 -2.5 1.375 0 0 Z " fill="#BFBFBF" transform="translate(165,260)"/>
<path d="M0 0 C0.99 0.33 1.98 0.66 3 1 C3 2.32 3 3.64 3 5 C3.66 5.33 4.32 5.66 5 6 C4.34 6 3.68 6 3 6 C2.67 6.99 2.34 7.98 2 9 C1.34 8.34 0.68 7.68 0 7 C-0.66 6.67 -1.32 6.34 -2 6 C-2 4.68 -2 3.36 -2 2 C-1.34 2 -0.68 2 0 2 C0 1.34 0 0.68 0 0 Z " fill="#F9F9F9" transform="translate(215,249)"/>
<path d="M0 0 C1 1 1 1 1.0625 4.0625 C1.041875 5.031875 1.02125 6.00125 1 7 C0.67 7 0.34 7 0 7 C-0.33 5.35 -0.66 3.7 -1 2 C-1.33 3.32 -1.66 4.64 -2 6 C-2.99 6 -3.98 6 -5 6 C-5 4.68 -5 3.36 -5 2 C-5.66 1.34 -6.32 0.68 -7 0 C-4.31633121 -1.3418344 -2.84719317 -0.73004953 0 0 Z " fill="#A3A3A5" transform="translate(145,253)"/>
<path d="M0 0 C0.125 2.375 0.125 2.375 0 5 C-2 7 -2 7 -4.625 7.125 C-5.40875 7.08375 -6.1925 7.0425 -7 7 C-6.34 6.34 -5.68 5.68 -5 5 C-5 4.01 -5 3.02 -5 2 C-1.125 0 -1.125 0 0 0 Z " fill="#AFAFAF" transform="translate(114,272)"/>
<path d="M0 0 C0 0.66 0 1.32 0 2 C0.66 2 1.32 2 2 2 C1.67 2.66 1.34 3.32 1 4 C-1.5625 4.625 -1.5625 4.625 -4 5 C-4.33 5.99 -4.66 6.98 -5 8 C-5.33 5.69 -5.66 3.38 -6 1 C-3 0 -3 0 0 0 Z " fill="#C3C3C3" transform="translate(236,252)"/>
<path d="M0 0 C0.33 1.32 0.66 2.64 1 4 C1.66 4 2.32 4 3 4 C3 4.99 3 5.98 3 7 C4.98 6.67 6.96 6.34 9 6 C9.33 6.66 9.66 7.32 10 8 C8.56260487 8.02712066 7.12506137 8.04645067 5.6875 8.0625 C4.48673828 8.07990234 4.48673828 8.07990234 3.26171875 8.09765625 C1 8 1 8 -2 7 C-1.34 4.69 -0.68 2.38 0 0 Z " fill="#7E7E7E" transform="translate(269,244)"/>
<path d="M0 0 C1.32 0.33 2.64 0.66 4 1 C4.04254356 2.99954746 4.04080783 5.00041636 4 7 C3 8 3 8 0.4375 8.0625 C-0.366875 8.041875 -1.17125 8.02125 -2 8 C-1.67 7.01 -1.34 6.02 -1 5 C-0.01 5.33 0.98 5.66 2 6 C1.34 4.02 0.68 2.04 0 0 Z " fill="#ECECEC" transform="translate(83,228)"/>
<path d="M0 0 C2.0625 0.4375 2.0625 0.4375 4 1 C3.34 2.32 2.68 3.64 2 5 C2.66 5.33 3.32 5.66 4 6 C2.35 6.33 0.7 6.66 -1 7 C-1.04254356 5.00045254 -1.04080783 2.99958364 -1 1 C-0.67 0.67 -0.34 0.34 0 0 Z " fill="#E4E6E5" transform="translate(106,271)"/>
<path d="M0 0 C1.65 0 3.3 0 5 0 C4.67 0.99 4.34 1.98 4 3 C2.0625 3.5625 2.0625 3.5625 0 4 C-0.66 4.66 -1.32 5.32 -2 6 C-4.125 5.625 -4.125 5.625 -6 5 C-6 4.34 -6 3.68 -6 3 C-5.195625 2.87625 -4.39125 2.7525 -3.5625 2.625 C-2.716875 2.41875 -1.87125 2.2125 -1 2 C-0.67 1.34 -0.34 0.68 0 0 Z " fill="#E5E8E7" transform="translate(87,253)"/>
<path d="M0 0 C2.875 -0.1875 2.875 -0.1875 6 0 C8 3 8 3 7.625 5.6875 C7.41875 6.450625 7.2125 7.21375 7 8 C6.731875 7.360625 6.46375 6.72125 6.1875 6.0625 C5.11332248 3.66868314 5.11332248 3.66868314 2 3 C1.67 3.99 1.34 4.98 1 6 C0.67 4.02 0.34 2.04 0 0 Z " fill="#9FA09F" transform="translate(132,244)"/>
<path d="M0 0 C1.32 0.66 2.64 1.32 4 2 C3.67 2.66 3.34 3.32 3 4 C-1.29 4 -5.58 4 -10 4 C-10 3.01 -10 2.02 -10 1 C-9.01 1.495 -9.01 1.495 -8 2 C-5.6670134 2.04022391 -3.33293334 2.04320247 -1 2 C-0.67 1.34 -0.34 0.68 0 0 Z " fill="#767676" transform="translate(435,261)"/>
<path d="M0 0 C0.66 1.65 1.32 3.3 2 5 C1.01 5.33 0.02 5.66 -1 6 C-1.33 5.34 -1.66 4.68 -2 4 C-3.32 4.33 -4.64 4.66 -6 5 C-6 4.01 -6 3.02 -6 2 C-3 0 -3 0 0 0 Z " fill="#B1B1B1" transform="translate(136,227)"/>
<path d="M0 0 C2 2 2 2 2.125 5.125 C2.08375 6.07375 2.0425 7.0225 2 8 C0.35 8 -1.3 8 -3 8 C-2.09456151 5.28368454 -1.07525194 2.65228812 0 0 Z " fill="#EDEDED" transform="translate(136,260)"/>
<path d="M0 0 C6.75 -0.125 6.75 -0.125 9 1 C9 1.66 9 2.32 9 3 C5.23375329 4.25541557 3.62811066 3.37061958 0 2 C0 1.34 0 0.68 0 0 Z " fill="#B1B1B1" transform="translate(123,259)"/>
<path d="M0 0 C1.98 0 3.96 0 6 0 C5.67 1.32 5.34 2.64 5 4 C3.68 3.34 2.36 2.68 1 2 C1 3.65 1 5.3 1 7 C0.34 6.67 -0.32 6.34 -1 6 C-0.67 4.02 -0.34 2.04 0 0 Z " fill="#FAFAFA" transform="translate(81,261)"/>
<path d="M0 0 C3.69923924 -0.20551329 5.74718637 0.31751019 9 2 C9.66 1.67 10.32 1.34 11 1 C11 1.99 11 2.98 11 4 C6.78121808 4.19622241 3.82989106 3.80230168 0 2 C0 1.34 0 0.68 0 0 Z " fill="#F7F8F8" transform="translate(126,253)"/>
<path d="M0 0 C0.99 0.33 1.98 0.66 3 1 C2.01 1.495 2.01 1.495 1 2 C1.66 2.33 2.32 2.66 3 3 C3 4.32 3 5.64 3 7 C2.34 7 1.68 7 1 7 C0.67 6.34 0.34 5.68 0 5 C-0.99 5.66 -1.98 6.32 -3 7 C-2.625 4.0625 -2.625 4.0625 -2 1 C-1.34 0.67 -0.68 0.34 0 0 Z " fill="#A3A3A3" transform="translate(99,211)"/>
<path d="M0 0 C2.31 0 4.62 0 7 0 C7 0.99 7 1.98 7 3 C4.69 3 2.38 3 0 3 C0 2.01 0 1.02 0 0 Z " fill="#E2E2E2" transform="translate(313,261)"/>
<path d="M0 0 C1.46132217 2.92264434 2.34099246 4.92463146 3 8 C2.01 8 1.02 8 0 8 C-0.66 8.66 -1.32 9.32 -2 10 C-1.34 6.7 -0.68 3.4 0 0 Z " fill="#A0A0A0" transform="translate(223,243)"/>
<path d="M0 0 C0.94616328 3.42984189 1 6.44175575 1 10 C-0.32 10.33 -1.64 10.66 -3 11 C-2.53199289 6.94393835 -2.12046792 3.53411321 0 0 Z " fill="#A6A6A6" transform="translate(173,236)"/>
<path d="M0 0 C0.99 0.33 1.98 0.66 3 1 C3.33 3.31 3.66 5.62 4 8 C3.01 8.495 3.01 8.495 2 9 C1.855625 7.88625 1.71125 6.7725 1.5625 5.625 C1.21627965 2.17857953 1.21627965 2.17857953 0 0 Z M-3 3 C-1.68 3.99 -0.36 4.98 1 6 C-0.32 6 -1.64 6 -3 6 C-3 5.01 -3 4.02 -3 3 Z " fill="#7E7E7E" transform="translate(136,228)"/>
<path d="M0 0 C0.33 0.66 0.66 1.32 1 2 C1.99 2 2.98 2 4 2 C4 4.64 4 7.28 4 10 C3.34 10 2.68 10 2 10 C0 3.375 0 3.375 0 0 Z " fill="#D1D1D1" transform="translate(95,224)"/>
<path d="M0 0 C0.66 0.33 1.32 0.66 2 1 C1.814375 1.61875 1.62875 2.2375 1.4375 2.875 C0.76313824 5.04160178 0.76313824 5.04160178 2 7 C0.35 6.67 -1.3 6.34 -3 6 C-3 4.35 -3 2.7 -3 1 C-2.01 0.67 -1.02 0.34 0 0 Z " fill="#D1D1D1" transform="translate(91,219)"/>
<path d="M0 0 C1.65 0 3.3 0 5 0 C5 2.62113708 4.68707555 4.50935112 4 7 C2.68 6.67 1.36 6.34 0 6 C0.33 5.34 0.66 4.68 1 4 C1.33 4 1.66 4 2 4 C2 3.01 2 2.02 2 1 C1.34 0.67 0.68 0.34 0 0 Z " fill="#969696" transform="translate(123,218)"/>
<path d="M0 0 C0.99 0 1.98 0 3 0 C3.66 1.32 4.32 2.64 5 4 C2.69 4.33 0.38 4.66 -2 5 C-2.33 6.32 -2.66 7.64 -3 9 C-3 7.35 -3 5.7 -3 4 C-2.34 4 -1.68 4 -1 4 C-0.67 2.68 -0.34 1.36 0 0 Z " fill="#9B9B9B" transform="translate(116,260)"/>
<path d="M0 0 C0.66 0.66 1.32 1.32 2 2 C1.67 2.66 1.34 3.32 1 4 C0.34 4 -0.32 4 -1 4 C-1 4.66 -1 5.32 -1 6 C-2.32 6 -3.64 6 -5 6 C-5 5.34 -5 4.68 -5 4 C-3.37373596 2.61767557 -1.7074998 1.28062485 0 0 Z " fill="#E3E4E3" transform="translate(106,237)"/>
<path d="M0 0 C0.99 0 1.98 0 3 0 C3 0.99 3 1.98 3 3 C3.66 3.33 4.32 3.66 5 4 C4 5 4 5 1.4375 5.0625 C0.2309375 5.0315625 0.2309375 5.0315625 -1 5 C-1.33 4.34 -1.66 3.68 -2 3 C-1.34 3 -0.68 3 0 3 C0 2.01 0 1.02 0 0 Z " fill="#A19D9E" transform="translate(99,281)"/>
<path d="M0 0 C0.66 0.99 1.32 1.98 2 3 C-1.22791555 5.1519437 -2.28400809 5.20086443 -6 5 C-6 4.01 -6 3.02 -6 2 C-4.35 2.33 -2.7 2.66 -1 3 C-0.67 2.01 -0.34 1.02 0 0 Z " fill="#8A8B8B" transform="translate(87,256)"/>
<path d="M0 0 C0.99 0.495 0.99 0.495 2 1 C2.33 1.99 2.66 2.98 3 4 C3.66 4.33 4.32 4.66 5 5 C4.67 5.99 4.34 6.98 4 8 C2.68 7.34 1.36 6.68 0 6 C0 4.02 0 2.04 0 0 Z " fill="#F3F3F3" transform="translate(105,220)"/>
<path d="M0 0 C0.33 0.66 0.66 1.32 1 2 C0.01 3.32 -0.98 4.64 -2 6 C-4.51083114 4.74458443 -4.87125446 3.49936512 -6 1 C-4.02 0.67 -2.04 0.34 0 0 Z " fill="#A1A1A1" transform="translate(122,280)"/>
<path d="M0 0 C0.99 0.33 1.98 0.66 3 1 C2.67 2.65 2.34 4.3 2 6 C1.01 6.33 0.02 6.66 -1 7 C-1.04254356 5.00045254 -1.04080783 2.99958364 -1 1 C-0.67 0.67 -0.34 0.34 0 0 Z " fill="#A5A5A6" transform="translate(103,271)"/>
<path d="M0 0 C0.99 0.33 1.98 0.66 3 1 C3.33 3.64 3.66 6.28 4 9 C3.01 8.67 2.02 8.34 1 8 C1 6.35 1 4.7 1 3 C0.34 2.67 -0.32 2.34 -1 2 C-0.67 1.34 -0.34 0.68 0 0 Z " fill="#909192" transform="translate(109,263)"/>
<path d="M0 0 C2.0625 2.3125 2.0625 2.3125 4 5 C3.67 5.99 3.34 6.98 3 8 C2.34 7.67 1.68 7.34 1 7 C1 6.34 1 5.68 1 5 C0.34 5 -0.32 5 -1 5 C-0.67 3.35 -0.34 1.7 0 0 Z " fill="#EEF1F2" transform="translate(95,252)"/>
<path d="M0 0 C1.32 0 2.64 0 4 0 C4 0.66 4 1.32 4 2 C3.34 2 2.68 2 2 2 C1.67 2.99 1.34 3.98 1 5 C0.34 5.66 -0.32 6.32 -1 7 C-1.04254356 5.00045254 -1.04080783 2.99958364 -1 1 C-0.67 0.67 -0.34 0.34 0 0 Z " fill="#C7C7C7" transform="translate(73,236)"/>
<path d="M0 0 C1.04449911 3.13349732 0.93423645 3.98968256 0 7 C-0.66 7 -1.32 7 -2 7 C-2.33 6.34 -2.66 5.68 -3 5 C-3.66 5 -4.32 5 -5 5 C-4.34 3.68 -3.68 2.36 -3 1 C-3 1.66 -3 2.32 -3 3 C-2.01 2.01 -1.02 1.02 0 0 Z " fill="#838383" transform="translate(268,255)"/>
<path d="M0 0 C4.75 1.875 4.75 1.875 7 3 C6.67 3.99 6.34 4.98 6 6 C4.68 5.34 3.36 4.68 2 4 C2 3.34 2 2.68 2 2 C1.34 2 0.68 2 0 2 C0 1.34 0 0.68 0 0 Z " fill="#9BA19C" transform="translate(129,250)"/>
<path d="M0 0 C0.99 0 1.98 0 3 0 C3 1.98 3 3.96 3 6 C2.01 6 1.02 6 0 6 C0 4.02 0 2.04 0 0 Z " fill="#CDCECE" transform="translate(118,237)"/>
<path d="M0 0 C-0.33 0.99 -0.66 1.98 -1 3 C-1.66 3 -2.32 3 -3 3 C-3.33 3.99 -3.66 4.98 -4 6 C-4.66 6 -5.32 6 -6 6 C-6.33 6.66 -6.66 7.32 -7 8 C-6.65930765 4.84859577 -6.41923159 3.39218439 -4.0625 1.1875 C-2 0 -2 0 0 0 Z " fill="#565656" transform="translate(107,235)"/>
<path d="M0 0 C2.31 0 4.62 0 7 0 C6.67 0.66 6.34 1.32 6 2 C5.34 2 4.68 2 4 2 C3.67 3.32 3.34 4.64 3 6 C2.01 4.02 1.02 2.04 0 0 Z " fill="#F7F7F7" transform="translate(350,235)"/>
<path d="M0 0 C0.66 0.33 1.32 0.66 2 1 C2.625 4.0625 2.625 4.0625 3 7 C2.01 7 1.02 7 0 7 C0 5.35 0 3.7 0 2 C-0.66 1.67 -1.32 1.34 -2 1 C-1.34 0.67 -0.68 0.34 0 0 Z " fill="#868686" transform="translate(82,227)"/>
</svg>
